<svg width="49" height="48" viewBox="0 0 49 48" fill="none" xmlns="http://www.w3.org/2000/svg">
<g clip-path="url(#clip0_118_9246)">
<path d="M26.1709 15.7395C26.537 15.3734 26.537 14.7798 26.1708 14.4137C25.8048 14.0476 25.2111 14.0476 24.845 14.4137C24.7292 14.5295 24.5938 14.5468 24.5235 14.5468C24.4532 14.5468 24.3179 14.5294 24.202 14.4137C23.836 14.0476 23.2425 14.0476 22.8762 14.4137C22.51 14.7798 22.51 15.3734 22.8761 15.7395C23.3161 16.1795 23.9012 16.4219 24.5234 16.4219C25.1456 16.4219 25.7309 16.1795 26.1709 15.7395Z" fill="#9DD8DE"/>
<path d="M23.8408 42.375H15.1759C14.9273 42.375 14.6889 42.4738 14.513 42.6496L10.7629 46.3997C10.3968 46.7658 10.3968 47.3594 10.7629 47.7255C10.9459 47.9086 11.1859 48.0001 11.4258 48.0001C11.6657 48.0001 11.9056 47.9085 12.0887 47.7255L15.5644 44.25H23.8408C24.3585 44.25 24.7783 43.8303 24.7783 43.3125C24.7783 42.7947 24.3585 42.375 23.8408 42.375Z" fill="#9DD8DE"/>
<path d="M48.4653 29.1346C48.3704 28.115 47.8431 27.1818 47.0185 26.5745C45.5374 25.4834 43.4828 25.683 42.2394 27.0389L38.5645 31.0461V30.3354C38.5645 26.1342 35.5737 22.491 31.4531 21.6727L29.4964 21.284C28.8449 21.1546 28.2802 20.7905 27.8947 20.2778C30.3195 19.3157 32.2427 17.3541 33.1538 14.9042C33.3087 15.1041 33.4764 15.2962 33.6582 15.4779C34.8102 16.6298 36.351 17.2624 37.9615 17.2624C38.1727 17.2624 38.3851 17.2515 38.5979 17.2295C38.871 17.2013 39.1179 17.0547 39.2737 16.8287C39.4294 16.6026 39.4781 16.3195 39.4071 16.0543L39.2338 15.408L39.8803 15.5812C40.1453 15.6522 40.4286 15.6036 40.6546 15.4478C40.8807 15.292 41.0273 15.0451 41.0555 14.772C41.2452 12.9356 40.6068 11.1353 39.3039 9.83231C37.8192 8.34769 35.6844 7.74609 33.6706 8.19216C33.1546 3.58978 29.24 0 24.502 0C19.7641 0 15.8495 3.58978 15.3335 8.19216C13.3197 7.74609 11.1849 8.34759 9.70023 9.83231C8.39729 11.1353 7.75885 12.9358 7.9487 14.772C7.97701 15.0451 8.12345 15.292 8.34957 15.4478C8.5756 15.6035 8.85863 15.6521 9.12385 15.5812L9.77026 15.408L9.59701 16.0543C9.52595 16.3195 9.5747 16.6026 9.73041 16.8287C9.88613 17.0548 10.1331 17.2013 10.4062 17.2295C10.6191 17.2515 10.8313 17.2624 11.0426 17.2624C12.6532 17.2623 14.194 16.6298 15.3459 15.4779C15.5276 15.2962 15.6954 15.1041 15.8503 14.9042C16.7615 17.3541 18.6847 19.3157 21.1095 20.2778C20.724 20.7905 20.1593 21.1546 19.5079 21.284L17.5511 21.6727C13.4474 22.4876 10.4653 26.1044 10.4408 30.2836C9.21573 30.8731 8.08576 31.6714 7.09604 32.661L0.798008 38.959C0.431914 39.3251 0.431914 39.9187 0.798008 40.2848C0.981102 40.4679 1.22101 40.5594 1.46091 40.5594C1.70082 40.5594 1.94073 40.4679 2.12382 40.2848L8.42176 33.9869C10.3735 32.035 12.9687 30.9601 15.7291 30.9601C17.5866 30.9601 19.3327 31.6834 20.646 32.9968C20.8219 33.1726 21.0603 33.2714 21.3089 33.2714H27.4569C28.3668 33.2714 29.1071 34.0117 29.1071 34.9216C29.1071 35.8315 28.3669 36.5718 27.4569 36.5718H20.3301C19.8124 36.5718 19.3926 36.9915 19.3926 37.5093C19.3926 38.0271 19.8124 38.4468 20.3301 38.4468H27.6472C31.8887 38.4468 35.9656 36.6539 38.8325 33.5279L43.6211 28.3062C44.2157 27.6579 45.1982 27.5625 45.9065 28.0842C46.3065 28.3789 46.5522 28.8136 46.5982 29.3083C46.6442 29.8031 46.4829 30.2757 46.144 30.6392L40.0713 37.1525C37.8982 39.4832 35.1149 41.1215 32.0225 41.8903C31.52 42.0153 31.2139 42.5238 31.3388 43.0263C31.4449 43.4528 31.8274 43.7378 32.2479 43.7378C32.3228 43.7378 32.3988 43.7288 32.4747 43.7099C35.9204 42.8533 39.0215 41.028 41.4428 38.4311L47.5155 31.9178C48.214 31.1687 48.5601 30.1543 48.4653 29.1346ZM33.8935 10.0675C35.3409 9.67838 36.9051 10.085 37.978 11.1581C38.6086 11.7886 39.0143 12.5876 39.1564 13.446L38.1506 13.1766C37.8269 13.0897 37.4819 13.1825 37.2451 13.4192C37.0083 13.656 36.9158 14.0012 37.0025 14.3248L37.2719 15.3305C36.4136 15.1882 35.6144 14.7826 34.984 14.1522C33.911 13.079 33.5043 11.5148 33.8935 10.0675ZM31.8255 8.60156C29.564 8.391 27.4225 7.41159 25.7837 5.82928C26.4977 4.827 27.0516 3.69731 27.4055 2.47388C29.8372 3.52331 31.5924 5.84859 31.8255 8.60156ZM24.502 1.875C24.8758 1.875 25.243 1.9035 25.602 1.95759C24.509 5.72634 21.1314 8.42288 17.1763 8.63091C17.481 4.85503 20.6491 1.875 24.502 1.875ZM14.02 14.1521C13.3896 14.7826 12.5906 15.1883 11.7322 15.3304L12.0016 14.3247C12.0883 14.0012 11.9958 13.656 11.759 13.4191C11.5809 13.241 11.3414 13.1445 11.096 13.1445C11.0152 13.1445 10.9337 13.1549 10.8534 13.1765L9.84779 13.4459C9.98991 12.5875 10.3956 11.7885 11.026 11.158C12.0992 10.0848 13.6638 9.67828 15.1106 10.0674C15.5 11.5148 15.0932 13.079 14.02 14.1521ZM17.1501 11.6971V10.5102C20.0163 10.3916 22.6382 9.18497 24.5694 7.26131C26.5521 9.13641 29.1358 10.2797 31.854 10.486V11.6971C31.854 15.7509 28.5559 19.0491 24.502 19.0491C20.4482 19.0491 17.1501 15.7509 17.1501 11.6971ZM24.502 20.924C25.0165 20.924 25.5211 20.8809 26.0129 20.7996C26.2957 21.3352 26.6806 21.8034 27.1418 22.1818C26.4985 22.9587 25.543 23.4195 24.5021 23.4195C23.4612 23.4195 22.5057 22.9587 21.8626 22.1818C22.3238 21.8034 22.7087 21.3352 22.9914 20.7996C23.4831 20.881 23.9876 20.924 24.502 20.924ZM27.457 31.3964H21.6851C20.0544 29.903 17.9546 29.0852 15.7293 29.0852C14.5734 29.0852 13.4422 29.2455 12.3604 29.5542C12.6973 26.5835 14.9291 24.1051 17.9165 23.5118L19.8732 23.1232C19.973 23.1034 20.0715 23.08 20.1688 23.0539C21.1545 24.4529 22.7509 25.2946 24.5021 25.2946C26.2535 25.2946 27.8499 24.4529 28.8355 23.0539C28.9329 23.08 29.0314 23.1034 29.1311 23.1232L31.0879 23.5118C34.3337 24.1564 36.6895 27.0262 36.6895 30.3354V33.0247C35.0074 34.5823 32.951 35.6748 30.7391 36.2054C30.8954 35.8073 30.9822 35.3745 30.9822 34.9216C30.9822 32.9778 29.4009 31.3964 27.457 31.3964Z" fill="#9DD8DE"/>
<path d="M28.0625 42.375C27.8158 42.375 27.5741 42.4753 27.3997 42.6497C27.2253 42.8241 27.125 43.0659 27.125 43.3125C27.125 43.5591 27.2252 43.8009 27.3997 43.9753C27.5742 44.1497 27.8158 44.25 28.0625 44.25C28.3091 44.25 28.5509 44.1497 28.7252 43.9753C28.8996 43.8009 29 43.5591 29 43.3125C29 43.0659 28.8997 42.8241 28.7252 42.6497C28.5509 42.4753 28.3091 42.375 28.0625 42.375Z" fill="#9DD8DE"/>
</g>
<defs>
<clipPath id="clip0_118_9246">
<rect width="48" height="48" fill="white" transform="translate(0.5)"/>
</clipPath>
</defs>
</svg>
