<svg width="49" height="48" viewBox="0 0 49 48" fill="none" xmlns="http://www.w3.org/2000/svg">
<path d="M47 32.25H46.25V26.25C46.249 25.4547 45.9326 24.6922 45.3702 24.1298C44.8078 23.5674 44.0453 23.251 43.25 23.25V10.5C43.249 9.70467 42.9326 8.94221 42.3702 8.37983C41.8078 7.81745 41.0453 7.50104 40.25 7.5H8.75C7.95467 7.50104 7.19221 7.81745 6.62983 8.37983C6.06745 8.94221 5.75104 9.70467 5.75 10.5V23.25C4.95467 23.251 4.19221 23.5674 3.62983 24.1298C3.06745 24.6922 2.75104 25.4547 2.75 26.25V32.25H2C1.80109 32.25 1.61032 32.329 1.46967 32.4697C1.32902 32.6103 1.25 32.8011 1.25 33V36C1.25 36.1989 1.32902 36.3897 1.46967 36.5303C1.61032 36.671 1.80109 36.75 2 36.75H2.75V39.75C2.75 39.9489 2.82902 40.1397 2.96967 40.2803C3.11032 40.421 3.30109 40.5 3.5 40.5H5.75C5.92334 40.5001 6.09134 40.44 6.22537 40.3301C6.3594 40.2202 6.45116 40.0672 6.485 39.8972L7.115 36.75H41.885L42.515 39.8972C42.5488 40.0672 42.6406 40.2202 42.7746 40.3301C42.9087 40.44 43.0767 40.5001 43.25 40.5H45.5C45.6989 40.5 45.8897 40.421 46.0303 40.2803C46.171 40.1397 46.25 39.9489 46.25 39.75V36.75H47C47.1989 36.75 47.3897 36.671 47.5303 36.5303C47.671 36.3897 47.75 36.1989 47.75 36V33C47.75 32.8011 47.671 32.6103 47.5303 32.4697C47.3897 32.329 47.1989 32.25 47 32.25ZM7.25 10.5C7.25052 10.1023 7.40872 9.72111 7.68992 9.43992C7.97111 9.15872 8.35233 9.00052 8.75 9H40.25C40.6477 9.00052 41.0289 9.15872 41.3101 9.43992C41.5913 9.72111 41.7495 10.1023 41.75 10.5V23.25H40.25V20.25C40.249 19.4547 39.9326 18.6922 39.3702 18.1298C38.8078 17.5674 38.0453 17.251 37.25 17.25H28.25C27.4547 17.251 26.6922 17.5674 26.1298 18.1298C25.5674 18.6922 25.251 19.4547 25.25 20.25V23.25H23.75V20.25C23.749 19.4547 23.4326 18.6922 22.8702 18.1298C22.3078 17.5674 21.5453 17.251 20.75 17.25H11.75C10.9547 17.251 10.1922 17.5674 9.62983 18.1298C9.06745 18.6922 8.75104 19.4547 8.75 20.25V23.25H7.25V10.5ZM38.75 20.25V23.25H26.75V20.25C26.7505 19.8523 26.9087 19.4711 27.1899 19.1899C27.4711 18.9087 27.8523 18.7505 28.25 18.75H37.25C37.6477 18.7505 38.0289 18.9087 38.3101 19.1899C38.5913 19.4711 38.7495 19.8523 38.75 20.25ZM22.25 20.25V23.25H10.25V20.25C10.2505 19.8523 10.4087 19.4711 10.6899 19.1899C10.9711 18.9087 11.3523 18.7505 11.75 18.75H20.75C21.1477 18.7505 21.5289 18.9087 21.8101 19.1899C22.0913 19.4711 22.2495 19.8523 22.25 20.25ZM4.25 26.25C4.25052 25.8523 4.40872 25.4711 4.68992 25.1899C4.97111 24.9087 5.35233 24.7505 5.75 24.75H43.25C43.6477 24.7505 44.0289 24.9087 44.3101 25.1899C44.5913 25.4711 44.7495 25.8523 44.75 26.25V32.25H4.25V26.25ZM5.135 39H4.25V36.75H5.585L5.135 39ZM44.75 39H43.865L43.415 36.75H44.75V39ZM46.25 35.25H2.75V33.75H46.25V35.25Z" fill="#9DD8DE"/>
</svg>
