<svg width="48" height="48" viewBox="0 0 48 48" fill="none" xmlns="http://www.w3.org/2000/svg">
<g clip-path="url(#clip0_118_9255)">
<path d="M22.6148 35.5209C22.2538 35.256 21.7457 35.3333 21.4804 35.6945L21.3802 35.8309C21.1152 36.1919 21.1923 36.6992 21.5529 36.9648C21.6977 37.0715 21.8665 37.1231 22.0336 37.1231C22.2824 37.1231 22.5279 37.0091 22.6869 36.7937L22.7886 36.6554C23.0538 36.2942 22.976 35.7862 22.6148 35.5209Z" fill="#9DD8DE"/>
<path d="M22.8283 43.2413L20.7411 39.4461L22.6898 36.792C22.9552 36.4308 22.8773 35.9228 22.516 35.6575C22.1548 35.3921 21.6468 35.47 21.3816 35.8314L19.1262 38.9032C18.9391 39.1578 18.917 39.4977 19.0692 39.7746L21.4062 44.0234V44.0233C21.554 44.2919 21.8316 44.4439 22.118 44.4439C22.2503 44.4438 22.3844 44.4115 22.5084 44.3433C22.901 44.1274 23.0443 43.634 22.8283 43.2413Z" fill="#9DD8DE"/>
<path d="M28.8747 38.9032L26.6284 35.8439C26.4421 35.5903 26.1265 35.467 25.8177 35.5281C25.5089 35.5888 25.2632 35.8226 25.1869 36.1278C25.1283 36.3622 25.1772 36.6102 25.3201 36.8049L27.2592 39.4461L25.1863 43.2155C25.1205 43.3352 25.0859 43.4702 25.0859 43.607C25.0859 43.9774 25.3368 44.3008 25.6956 44.393C25.7628 44.4103 25.8306 44.4187 25.8975 44.4187C26.1881 44.4187 26.4634 44.2619 26.6086 43.9982L28.9316 39.7748C29.0839 39.4977 29.0616 39.1578 28.8747 38.9032Z" fill="#9DD8DE"/>
<path d="M30.1628 26.1499C29.8959 26.0098 29.5732 26.0289 29.3249 26.2001C28.8422 26.5326 28.3942 26.8849 27.9936 27.2471C25.8095 29.2215 23.7346 28.9543 23.6533 28.9427C23.6044 28.935 23.5546 28.9314 23.5054 28.933C22.6422 28.9551 21.0859 28.1664 19.4396 26.8734C19.1878 26.6757 18.9296 26.4873 18.6718 26.3133C18.4232 26.1453 18.1019 26.1283 17.8369 26.2692C17.5719 26.41 17.4062 26.6856 17.4062 26.9858V29.7698C17.4062 30.016 17.5183 30.2487 17.7103 30.4028C17.733 30.4211 17.7566 30.438 17.781 30.4536L23.5354 34.2988C23.5364 34.2994 23.5372 34.3001 23.5382 34.3008L23.5534 34.3109C23.6888 34.4005 23.8449 34.4458 24.0016 34.4458C24.1334 34.4458 24.2652 34.4139 24.3857 34.3495C24.4111 34.3359 24.4355 34.321 24.4589 34.305C24.4616 34.3032 24.4643 34.3015 24.4671 34.2996C24.4703 34.2975 24.4735 34.2954 24.4767 34.2932L30.2176 30.457C30.2406 30.4424 30.2631 30.4267 30.2848 30.4098C30.4818 30.256 30.5969 30.0201 30.5969 29.7701V26.8684C30.5969 26.5668 30.4298 26.2903 30.1628 26.1499ZM28.9737 29.3358L24.0015 32.6583L19.0293 29.3357V28.5976C20.24 29.4774 22.021 30.5566 23.4727 30.5565C23.4757 30.5565 23.4791 30.5565 23.4822 30.5565C23.9696 30.6104 26.4552 30.7569 28.9739 28.5474V29.3358H28.9737Z" fill="#9DD8DE"/>
<path d="M24.7978 33.5008C24.7442 33.179 24.503 32.9205 24.1856 32.8448C23.868 32.7695 23.5363 32.8909 23.3431 33.154L21.4778 35.6947C21.2125 36.056 21.2903 36.5639 21.6517 36.8291C21.7964 36.9355 21.9645 36.9866 22.1313 36.9866C22.3809 36.9866 22.6271 36.8718 22.7863 36.6551L24.6419 34.1278C24.7474 33.9898 24.8089 33.8181 24.8089 33.6345C24.8088 33.5899 24.8051 33.5449 24.7978 33.5008Z" fill="#9DD8DE"/>
<path d="M36.3662 7.33799C36.35 7.21086 35.9699 4.46717 33.3873 3.38482C33.4623 2.90295 33.4544 2.28363 33.1485 1.6811C32.7373 0.871287 31.9259 0.343567 30.7367 0.112379C30.6857 0.102442 30.6339 0.0974731 30.5819 0.0974731H19.6893C15.2664 0.0974731 11.668 3.69579 11.668 8.11893V12.3931C11.668 13.5067 12.0476 14.5926 12.7366 15.4506C13.0783 15.876 13.499 16.619 13.5625 17.7423C13.5872 18.1809 13.9543 18.5198 14.3956 18.5076C14.8348 18.4952 15.1843 18.1356 15.1843 17.6964V12.1238C15.7353 9.84487 17.616 9.40133 17.9394 9.34143H21.4627C21.8772 9.34143 22.2847 9.27815 22.6742 9.15327C23.3442 8.9384 24.407 8.54296 25.1808 8.24905C25.6985 8.05227 26.2717 8.04505 26.7946 8.2288L30.5665 9.55293C32.4522 10.2486 32.7888 11.904 32.8305 12.1641V18.8519C32.8305 19.2767 33.1579 19.6291 33.5815 19.6607C33.6021 19.6622 33.6224 19.663 33.6426 19.663C34.0407 19.663 34.3844 19.3713 34.4447 18.9716C34.4479 18.9507 34.7719 16.8576 35.8168 15.1817C36.1804 14.5983 36.3726 13.9331 36.3726 13.2581V7.44046C36.3726 7.40624 36.3705 7.37202 36.3662 7.33799ZM34.7495 13.2577C34.7495 13.6203 34.6472 13.9799 34.4535 14.2997V12.1086C34.4535 12.0792 34.4519 12.0501 34.4487 12.0209C34.436 11.9031 34.1006 9.12187 31.1208 8.02724C31.1171 8.02593 31.1134 8.02461 31.1098 8.0233L27.3321 6.69711C26.9062 6.54758 26.4606 6.47295 26.0153 6.47295C25.5364 6.47295 25.0578 6.5593 24.6044 6.7318C23.521 7.14336 22.682 7.44627 22.1785 7.60771C21.9495 7.68111 21.7086 7.71843 21.4626 7.71843H17.8738C17.839 7.71843 17.8041 7.72068 17.7695 7.72508C17.6322 7.74289 14.3953 8.20321 13.5807 11.8543C13.5677 11.9123 13.5612 11.9716 13.5612 12.031V13.7013C13.3844 13.2929 13.2909 12.8468 13.2909 12.3932V8.11911C13.2909 4.59111 16.1612 1.72076 19.6891 1.72076H30.4999C30.9475 1.8161 31.4914 2.01176 31.6978 2.40982C31.9504 2.89704 31.6626 3.56792 31.6624 3.56848C31.5586 3.78926 31.5598 4.04492 31.6653 4.26476C31.7708 4.48461 31.9698 4.64529 32.2069 4.70239C34.273 5.19973 34.6944 7.18133 34.7494 7.50186V13.2577H34.7495Z" fill="#9DD8DE"/>
<path d="M34.4462 12.0209C34.4335 11.9031 34.0981 9.12188 31.1183 8.02725C31.1146 8.02594 31.111 8.02463 31.1073 8.02331L27.3297 6.69712C26.4456 6.38681 25.477 6.39919 24.6018 6.73162C23.5184 7.14319 22.6795 7.4461 22.1759 7.60763C21.9469 7.68103 21.7061 7.71825 21.4601 7.71825H17.8712C17.8364 7.71825 17.8015 7.7205 17.7669 7.72491C17.6296 7.74272 14.3927 8.20303 13.5781 11.8541C13.5652 11.9122 13.5586 11.9714 13.5586 12.0309V19.0074C13.5586 19.0134 13.5587 19.0194 13.5588 19.0254C13.5641 19.2677 13.7356 24.9909 17.69 27.6083L17.7104 27.6227C17.7274 27.6347 17.7444 27.6467 17.7621 27.6586C17.9875 27.8109 18.2139 27.9762 18.4354 28.15C19.5874 29.0546 21.7584 30.5565 23.471 30.5565C23.4742 30.5565 23.4772 30.5565 23.4805 30.5565C23.5735 30.5668 23.7395 30.5805 23.9647 30.5805C24.9353 30.5805 27.006 30.3261 29.0802 28.4511C29.4283 28.1366 29.8197 27.8289 30.244 27.5366L30.3046 27.4941C30.3244 27.4801 30.3442 27.4661 30.3646 27.4524C31.6837 26.5664 33.9682 24.2804 34.4478 18.9241C34.45 18.9001 34.4511 18.8758 34.4511 18.8516V12.1086C34.451 12.0793 34.4493 12.0502 34.4462 12.0209ZM32.8278 18.815C32.3856 23.6489 30.326 25.5229 29.4596 26.1048C29.4288 26.1255 29.3984 26.1469 29.3681 26.1683L29.3231 26.2C28.8404 26.5325 28.3924 26.8848 27.9917 27.247C25.8159 29.214 23.7477 28.956 23.6462 28.9418C23.5991 28.9348 23.5512 28.9318 23.5035 28.9331C22.6404 28.9552 21.0841 28.1665 19.4378 26.8735C19.186 26.6757 18.9278 26.4872 18.6703 26.3135L18.6504 26.2994C18.6309 26.2856 18.6115 26.2718 18.5886 26.2566C15.3975 24.1445 15.1887 19.2019 15.1817 18.9956V12.1238C15.7347 9.83644 17.6271 9.39797 17.9355 9.34135H21.4601C21.8746 9.34135 22.2821 9.27807 22.6717 9.15319C23.3416 8.93832 24.4046 8.54288 25.1783 8.24897C25.696 8.05219 26.2692 8.04497 26.792 8.22872L30.5639 9.55285C32.4496 10.2485 32.7862 11.9039 32.8279 12.164V18.815H32.8278Z" fill="#9DD8DE"/>
<path d="M24.7237 33.2718C24.5973 33.0189 24.3483 32.85 24.0665 32.826C23.7853 32.8028 23.511 32.9264 23.3436 33.1544L21.3996 35.8021C21.1346 36.1633 21.212 36.6708 21.5729 36.9362C21.7176 37.0427 21.8861 37.0942 22.0531 37.0942C22.3021 37.0942 22.5479 36.9799 22.707 36.764L24.6511 34.1261C24.7539 33.9866 24.8094 33.8082 24.8094 33.635C24.8095 33.5091 24.78 33.3846 24.7237 33.2718Z" fill="#9DD8DE"/>
<path d="M24.7788 46.3386C24.4739 46.0197 23.9702 46.0028 23.6447 46.3006L23.4592 46.4703C23.1814 46.7243 23.1148 47.136 23.2983 47.4647L23.304 47.4749C23.428 47.697 23.649 47.8482 23.9009 47.8831C23.9383 47.8883 23.9756 47.8908 24.0127 47.8908C24.2264 47.8908 24.4333 47.8064 24.5865 47.6531L24.7663 47.4732C25.0782 47.1613 25.0838 46.6573 24.7788 46.3386Z" fill="#9DD8DE"/>
<path d="M24.5448 46.4702L24.3593 46.3006C24.0338 46.0028 23.53 46.0198 23.2251 46.3385C22.9201 46.6575 22.9257 47.1616 23.2377 47.4734L23.4177 47.6533C23.571 47.8065 23.7778 47.8909 23.9915 47.8909C24.0297 47.8909 24.068 47.8883 24.1063 47.8828C24.3591 47.8467 24.5802 47.6936 24.7031 47.4697L24.7088 47.4595C24.8886 47.1314 24.8209 46.7227 24.5448 46.4702Z" fill="#9DD8DE"/>
<path d="M24.5553 46.4828L24.5542 46.4819C24.4289 46.3647 24.2668 46.2875 24.0882 46.2679C23.8491 46.2418 23.6161 46.3228 23.4467 46.4806L23.4443 46.4828C23.2802 46.6325 23.1847 46.8429 23.1799 47.0649C23.1751 47.2871 23.2615 47.5013 23.4189 47.6579L23.4275 47.6664C23.5858 47.8238 23.7927 47.9025 23.9997 47.9025C24.2075 47.9025 24.4151 47.8232 24.5735 47.6649L24.582 47.6564C24.7387 47.4996 24.8246 47.2855 24.8195 47.0639C24.8146 46.8422 24.7191 46.6323 24.5553 46.4828Z" fill="#9DD8DE"/>
<path d="M24.2622 32.8493C23.9261 32.7417 23.5572 32.8665 23.3526 33.1543C23.1237 33.4766 23.1614 33.9158 23.4403 34.196C23.5973 34.3537 23.8056 34.4346 24.0155 34.4346C24.1785 34.4346 24.3424 34.3858 24.4838 34.2862C24.6998 34.1343 24.8283 33.8868 24.8283 33.6226V33.6206C24.8283 33.2675 24.5986 32.9567 24.2622 32.8493Z" fill="#9DD8DE"/>
<path d="M24.6585 33.1476L24.6516 33.1382C24.4434 32.8564 24.0778 32.7403 23.745 32.8499C23.4123 32.9595 23.1875 33.2704 23.1875 33.6206V33.6345C23.1875 33.9333 23.3552 34.2056 23.6185 34.347C23.7377 34.411 23.8693 34.4426 24.0008 34.4426C24.1593 34.4426 24.3177 34.3967 24.4538 34.3065C24.6393 34.1837 24.7664 33.99 24.8051 33.7709C24.8438 33.5519 24.7908 33.3264 24.6585 33.1476Z" fill="#9DD8DE"/>
<path d="M47.9591 44.452L46.9122 38.1301C46.5823 36.1378 45.1977 34.4733 43.2987 33.7865L33.1705 30.1222C32.8582 30.0093 32.5092 30.0978 32.2885 30.3455C32.0678 30.5933 32.0201 30.9504 32.1682 31.2475L34.2829 35.4882L32.2079 35.5202C31.9262 35.5246 31.6668 35.6746 31.5228 35.9169C31.3788 36.1591 31.3708 36.4585 31.5015 36.7082L32.3525 38.3332L23.6429 46.3007C23.634 46.3089 23.6252 46.3171 23.6167 46.3257L23.4369 46.5055C23.1822 46.7603 23.1258 47.1525 23.2988 47.4687L23.3052 47.4802C23.4476 47.7403 23.7206 47.9023 24.0172 47.9023H45.0333C45.9064 47.9023 46.7308 47.5204 47.2953 46.8546C47.8598 46.1888 48.1018 45.313 47.9591 44.452ZM46.0576 45.8049C45.8018 46.1064 45.4285 46.2792 45.0334 46.2792H26.0709L33.9094 39.1089C34.1813 38.8603 34.2516 38.4599 34.0806 38.1336L33.5511 37.1227L35.5973 37.0912C35.8762 37.087 36.1332 36.9397 36.2782 36.7014C36.4231 36.463 36.4355 36.1672 36.3111 35.9175L34.5264 32.3385L42.747 35.3125C44.0947 35.8 45.0772 36.9813 45.3113 38.3951L46.3582 44.717C46.3582 44.7171 46.3582 44.7171 46.3582 44.7171C46.4227 45.107 46.3132 45.5034 46.0576 45.8049Z" fill="#9DD8DE"/>
<path d="M24.5615 46.4894L24.5521 46.4809C24.2309 46.19 23.7376 46.203 23.432 46.5103L23.4235 46.5188C23.1924 46.7513 23.1239 47.1001 23.2497 47.4027C23.3756 47.7054 23.6713 47.9026 23.999 47.9026H24.0169C24.3524 47.9026 24.6534 47.696 24.774 47.3829C24.8948 47.0697 24.8104 46.7146 24.5615 46.4894Z" fill="#9DD8DE"/>
<path d="M24.5398 46.4661C24.3556 46.3003 24.1057 46.2276 23.861 46.2694C23.6166 46.3107 23.4046 46.4617 23.2853 46.679L23.2797 46.6893C23.1086 47.0012 23.1606 47.3882 23.4081 47.6439L23.411 47.6469C23.57 47.8113 23.7818 47.8941 23.9943 47.8941C24.1897 47.8941 24.3858 47.8238 24.541 47.682L24.5495 47.6743C24.6232 47.6072 24.684 47.5267 24.7286 47.4375C24.892 47.111 24.8112 46.7103 24.5398 46.4661Z" fill="#9DD8DE"/>
<path d="M24.5721 46.5155L24.5688 46.512C24.5666 46.5099 24.5644 46.5076 24.5623 46.5056L24.3823 46.3258C24.3738 46.3172 24.3651 46.3089 24.3563 46.3009L15.6466 38.3334L16.4978 36.7084C16.6286 36.4588 16.6204 36.1593 16.4765 35.917C16.3325 35.6749 16.0732 35.5248 15.7915 35.5204L13.7163 35.4884L15.831 31.2477C15.9791 30.9507 15.9313 30.5934 15.7107 30.3457C15.4901 30.0979 15.1406 30.0093 14.8287 30.1223L4.70056 33.7867C2.80156 34.4734 1.41687 36.1379 1.08696 38.1303L0.0400501 44.4522C-0.102544 45.3135 0.139519 46.1892 0.704083 46.8549C1.26874 47.5206 2.09327 47.9024 2.96609 47.9024H24.0001C24.3288 47.9024 24.6249 47.7042 24.7502 47.4004C24.8755 47.0967 24.8052 46.7472 24.5721 46.5155ZM2.96618 46.2794C2.57093 46.2794 2.19762 46.1066 1.94205 45.8051C1.68649 45.5037 1.57699 45.1072 1.64149 44.7172L2.6884 38.3953C2.92249 36.9813 3.90509 35.8002 5.25275 35.3127L13.4732 32.3387L11.6886 35.9175C11.5641 36.1672 11.5765 36.463 11.7215 36.7015C11.8664 36.9398 12.1235 37.087 12.4024 37.0912L14.4486 37.1228L13.9191 38.1337C13.7482 38.4599 13.8185 38.8604 14.0902 39.109L21.9288 46.2794H2.96618Z" fill="#9DD8DE"/>
</g>
<defs>
<clipPath id="clip0_118_9255">
<rect width="48" height="48" fill="white"/>
</clipPath>
</defs>
</svg>
