<svg width="49" height="48" viewBox="0 0 49 48" fill="none" xmlns="http://www.w3.org/2000/svg">
<g clip-path="url(#clip0_118_9309)">
<path d="M22.6548 32.5562C23.0207 32.1896 23.0207 31.5964 22.6548 31.2298C22.2886 30.8643 21.6954 30.8643 21.3288 31.2298C20.9633 31.5964 20.9633 32.1896 21.3288 32.5562C21.6954 32.9217 22.2886 32.9217 22.6548 32.5562Z" fill="#9DD8DE"/>
<path d="M18.2148 10.3096C18.2148 15.9943 22.8397 20.6195 28.5244 20.6195C34.2091 20.6195 38.834 15.9943 38.834 10.3096C38.834 4.62488 34.2091 0 28.5244 0C22.8397 0 18.2148 4.62488 18.2148 10.3096ZM36.9597 10.3096C36.9597 14.9608 33.1757 18.7449 28.5244 18.7449C23.8732 18.7449 20.0891 14.9608 20.0891 10.3096C20.0891 5.65869 23.8732 1.87463 28.5244 1.87463C33.1757 1.87463 36.9597 5.65869 36.9597 10.3096Z" fill="#9DD8DE"/>
<path d="M11.3892 47.7227C11.7525 48.0889 12.3439 48.093 12.7119 47.7304L17.2559 43.2539C18.0279 42.4819 18.2626 41.3389 17.9231 40.3454L18.9006 39.4028C19.4268 38.8945 20.1197 38.6143 20.8521 38.6143H33.3117C35.5221 38.6143 37.6114 37.7655 39.1952 36.2241C39.2604 36.1607 38.7005 36.8203 47.6954 26.0698C49.0295 24.4914 48.8299 22.1213 47.25 20.7857C45.6801 19.4626 43.3283 19.6527 41.9905 21.2039L36.46 26.8883C35.7616 26.0288 34.6967 25.493 33.5461 25.493H23.0948C21.6076 24.8708 20.0296 24.5559 18.4014 24.5559C13.8882 24.5559 9.94742 26.6403 7.83255 30.5485C6.94156 30.3797 6.00186 30.6492 5.32584 31.3253L0.867219 35.7971C0.503205 36.1622 0.502473 36.7529 0.865754 37.1191L11.3892 47.7227ZM18.401 26.4301C19.8366 26.4301 21.2245 26.7191 22.5271 27.2889C22.6458 27.3409 22.7736 27.3676 22.9029 27.3676H33.5461C34.5623 27.3676 35.4207 28.1964 35.4207 29.2419C35.4207 30.2757 34.5799 31.1165 33.5461 31.1165H25.8992C25.3818 31.1165 24.9621 31.5362 24.9621 32.0537C24.9621 32.5715 25.3818 32.9908 25.8992 32.9908H33.5461C35.6133 32.9908 37.295 31.3092 37.295 29.2419C37.295 29.0771 37.2832 28.9138 37.262 28.7519C42.612 23.2525 43.3664 22.4798 43.3986 22.4414C44.0666 21.6529 45.2524 21.5529 46.0412 22.218C46.8307 22.8856 46.9307 24.0706 46.2609 24.8635L37.8545 34.913C36.627 36.0915 35.0153 36.7401 33.3117 36.7401H20.8521C19.6311 36.7401 18.4754 37.207 17.5987 38.054L16.8022 38.8227L9.45963 31.4805C11.1757 28.2612 14.3958 26.4301 18.401 26.4301ZM6.65226 32.6499C6.96134 32.3408 7.43595 32.2851 7.81278 32.518C7.97501 32.6169 7.50919 32.1928 15.9306 40.6025C16.3052 40.9771 16.2851 41.574 15.9357 41.9234L12.0619 45.7397L2.85282 36.4603L6.65226 32.6499Z" fill="#9DD8DE"/>
<path d="M27.3994 4.68652V5.78479C26.3084 6.17151 25.5248 7.21338 25.5248 8.43543C25.5248 9.9856 26.786 11.2472 28.3365 11.2472C28.8532 11.2472 29.2737 11.6676 29.2737 12.1843C29.2737 12.7011 28.8532 13.1215 28.3365 13.1215C27.9363 13.1215 27.5038 12.8699 27.1196 12.4125C26.7864 12.0162 26.1953 11.9653 25.799 12.2982C25.4028 12.6315 25.3515 13.2225 25.6848 13.6188C26.1858 14.2146 26.775 14.6299 27.3994 14.8394V15.9332C27.3994 16.4511 27.8191 16.8704 28.3365 16.8704C28.854 16.8704 29.2737 16.4511 29.2737 15.9332V14.835C30.3646 14.4479 31.1483 13.406 31.1483 12.1843C31.1483 10.6338 29.8871 9.37256 28.3365 9.37256C27.8198 9.37256 27.3994 8.95215 27.3994 8.43543C27.3994 7.9187 27.8198 7.49793 28.3365 7.49793C28.6687 7.49793 29.0191 7.66748 29.3502 7.98792C29.7223 8.3479 30.3155 8.33801 30.6755 7.96631C31.0355 7.59424 31.0256 7.00098 30.6539 6.64099C30.1782 6.18067 29.7021 5.92029 29.2737 5.7782V4.68652C29.2737 4.1687 28.854 3.74902 28.3365 3.74902C27.8191 3.74902 27.3994 4.1687 27.3994 4.68652Z" fill="#9DD8DE"/>
</g>
<defs>
<clipPath id="clip0_118_9309">
<rect width="47.9063" height="48" fill="white" transform="translate(0.546875)"/>
</clipPath>
</defs>
</svg>
