<svg width="48" height="48" viewBox="0 0 48 48" fill="none" xmlns="http://www.w3.org/2000/svg">
<path d="M45.6 25.6001H44.8V8.80013C44.8 4.8001 41.6001 1.60013 37.6 1.60013C34.0591 1.60013 31.5124 4.22569 31.2275 8.07272C29.3685 8.4241 28 10.0252 28 12.0001C28 12.4801 28.32 12.8001 28.8 12.8001H35.2C35.68 12.8001 36 12.4801 36 12.0001C36 10.047 34.6618 8.45925 32.8343 8.08444C33.0734 5.54232 34.6002 3.20007 37.6 3.20007C40.72 3.20007 43.2 5.68003 43.2 8.80003V25.6H19.1227C18.7608 23.7549 17.1653 22.4001 15.2001 22.4001C14.4001 21.4401 13.2801 20.8 12.0001 20.8C10.4801 20.8 9.12009 21.6801 8.48006 22.96C7.84003 22.6401 7.12003 22.4001 6.40003 22.4001C4.43475 22.4001 2.83931 23.7549 2.47744 25.6H2.4C1.03997 25.6 0 26.64 0 28C0 29.3601 1.03997 30.4 2.4 30.4H3.36141L5.52 38.9601C6.16003 41.44 8.4 43.2001 10.96 43.2001H11.6001L10.5601 45.2801C10.3201 45.6802 10.4801 46.1602 10.8801 46.3201C10.96 46.4001 11.1201 46.4001 11.2 46.4001C11.52 46.4001 11.76 46.24 11.92 46L13.32 43.2001H35.52L36.88 45.9201C37.0401 46.24 37.2801 46.4001 37.6 46.4001C37.7601 46.4001 37.84 46.4001 37.92 46.24C38.24 46.08 38.4 45.6 38.24 45.2001L37.2379 43.1958C39.7147 43.1079 41.8566 41.378 42.48 39.04L44.6587 30.4H45.6C46.96 30.4 48 29.3601 48 28C48 26.6401 46.96 25.6001 45.6 25.6001ZM34.32 11.2001H29.76C30.08 10.2401 31.04 9.6001 32.08 9.6001C33.1201 9.6001 34 10.2401 34.32 11.2001ZM6.40003 24.0001C7.12003 24.0001 7.76006 24.3201 8.32003 24.8801C8.48006 25.1201 8.80003 25.2001 9.12 25.1201C9.43997 25.0402 9.6 24.8002 9.67997 24.4801C9.91997 23.2801 10.88 22.4001 12.08 22.4001C12.96 22.4001 13.76 22.8001 14.16 23.6001C14.32 23.92 14.72 24.0801 15.04 24.0001C15.12 24.0001 15.2001 24.0001 15.28 24.0001C16.32 24.0001 17.2 24.6401 17.52 25.6001H4.15997C4.48003 24.6401 5.35997 24.0001 6.40003 24.0001ZM41.04 38.5601C40.56 40.3201 38.96 41.6002 37.12 41.6002H11.04C9.19997 41.6002 7.60003 40.3202 7.12003 38.5601L5.04 30.4001H42.96L41.04 38.5601ZM45.6 28.8001H44H4.00003H2.4C1.92 28.8001 1.60003 28.4801 1.60003 28.0001C1.60003 27.5201 1.92 27.2002 2.4 27.2002H3.19997H18.3999H45.6C46.08 27.2002 46.4 27.5201 46.4 28.0001C46.4 28.4801 46.08 28.8001 45.6 28.8001Z" fill="#9DD8DE"/>
<path d="M28.8 16.4001C29.28 16.4001 29.5999 16.0801 29.5999 15.6001V15.2001C29.5999 14.7201 29.28 14.4001 28.8 14.4001C28.32 14.4001 28 14.7201 28 15.2001V15.6001C28 16.0801 28.32 16.4001 28.8 16.4001Z" fill="#9DD8DE"/>
<path d="M28.8 20.0801C29.28 20.0801 29.5999 19.6801 29.5999 19.2802V18.4001C29.5999 17.9201 29.28 17.6002 28.8 17.6002C28.32 17.6002 28 17.9201 28 18.4001V19.2802C28 19.7601 28.32 20.0801 28.8 20.0801Z" fill="#9DD8DE"/>
<path d="M28.8 23.2002C29.28 23.2002 29.5999 22.8803 29.5999 22.4003V22.0002C29.5999 21.5202 29.28 21.2003 28.8 21.2003C28.32 21.2003 28 21.5202 28 22.0002V22.4003C28 22.8802 28.32 23.2002 28.8 23.2002Z" fill="#9DD8DE"/>
<path d="M31.9992 16.3999C32.4792 16.3999 32.7992 16.0799 32.7992 15.5999V15.1999C32.7992 14.7199 32.4792 14.3999 31.9992 14.3999C31.5192 14.3999 31.1992 14.7199 31.1992 15.1999V15.5999C31.1992 16.0799 31.5192 16.3999 31.9992 16.3999Z" fill="#9DD8DE"/>
<path d="M31.1992 19.2801C31.1992 19.7601 31.5192 20.0801 31.9992 20.0801C32.4792 20.0801 32.7992 19.6801 32.7992 19.2801V18.4001C32.7992 17.9201 32.4792 17.6001 31.9992 17.6001C31.5192 17.6001 31.1992 17.9201 31.1992 18.4001V19.2801Z" fill="#9DD8DE"/>
<path d="M31.1992 22.4002C31.1992 22.8802 31.5192 23.2002 31.9992 23.2002C32.4792 23.2002 32.7992 22.8802 32.7992 22.4002V22.0002C32.7992 21.5202 32.4792 21.2002 31.9992 21.2002C31.5192 21.2002 31.1992 21.5202 31.1992 22.0002V22.4002Z" fill="#9DD8DE"/>
<path d="M35.2023 16.4001C35.6823 16.4001 36.0023 16.0801 36.0023 15.6001V15.2001C36.0023 14.7201 35.6823 14.4001 35.2023 14.4001C34.7223 14.4001 34.4023 14.7201 34.4023 15.2001V15.6001C34.4023 16.0801 34.7223 16.4001 35.2023 16.4001Z" fill="#9DD8DE"/>
<path d="M34.3984 19.2801C34.3984 19.7601 34.7184 20.08 35.1984 20.08C35.6784 20.08 35.9985 19.6801 35.9985 19.2801V18.4C35.9985 17.92 35.6785 17.6001 35.1985 17.6001C34.7185 17.6001 34.3985 17.92 34.3985 18.4V19.2801H34.3984Z" fill="#9DD8DE"/>
<path d="M34.3984 22.4001C34.3984 22.8801 34.7184 23.2001 35.1984 23.2001C35.6784 23.2001 35.9984 22.8801 35.9984 22.4001V22.0001C35.9984 21.5201 35.6784 21.2001 35.1984 21.2001C34.7184 21.2001 34.3984 21.5201 34.3984 22.0001V22.4001Z" fill="#9DD8DE"/>
</svg>
