<svg width="23" height="23" viewBox="0 0 23 23" fill="none" xmlns="http://www.w3.org/2000/svg">
<path fill-rule="evenodd" clip-rule="evenodd" d="M3.99991 0.99981H18.9999C20.6568 0.99981 22 2.34312 22 3.99988V19C22 20.6567 20.6568 21.9998 18.9999 21.9998H3.99991C2.34303 21.9998 0.999948 20.6567 0.999948 19V3.99988C0.999948 2.34312 2.34303 0.99981 3.99991 0.99981Z" fill="#FB3A3A"/>
<path fill-rule="evenodd" clip-rule="evenodd" d="M18.6063 6.49076C18.3884 6.27674 18.035 6.27674 17.8169 6.49076L8.76995 15.3745L5.21155 11.8801C4.99354 11.6661 4.64021 11.6661 4.4222 11.8801C4.20421 12.0942 4.20421 12.4412 4.4222 12.6552L8.37535 16.5371C8.59324 16.7509 8.94679 16.7509 9.16468 16.5371L18.6063 7.26561C18.8243 7.05159 18.8243 6.70478 18.6063 6.49076Z" fill="white"/>
</svg>
