<svg width="378" height="80" viewBox="0 0 378 80" fill="none" xmlns="http://www.w3.org/2000/svg">
<path d="M0.752 80H-1.248V82H0.752V80ZM0.752 0.199995V-1.8H-1.248V0.199995H0.752ZM51.026 5.216L50.0528 6.96327L50.0659 6.97056L50.0791 6.97765L51.026 5.216ZM64.478 19.124L62.6757 19.9909L62.6823 20.0047L62.6891 20.0184L64.478 19.124ZM64.478 61.19L62.6846 60.3046L62.68 60.3141L64.478 61.19ZM51.026 75.098L51.9822 76.8547L51.9898 76.8504L51.026 75.098ZM15.344 67.46H13.344V69.46H15.344V67.46ZM43.16 64.268L44.1225 66.0212L44.1356 66.014L44.1486 66.0066L43.16 64.268ZM51.482 54.92L53.3292 55.6868L53.3342 55.6746L51.482 54.92ZM51.482 25.394L49.6298 26.1486L51.482 25.394ZM43.16 15.932L44.1486 14.1934L43.16 15.932ZM15.344 12.626V10.626H13.344V12.626H15.344ZM2.752 80V0.199995H-1.248V80H2.752ZM0.752 2.2H27.998V-1.8H0.752V2.2ZM27.998 2.2C37.1228 2.2 44.4345 3.83405 50.0528 6.96327L51.9992 3.46873C45.6095 -0.0900555 37.5692 -1.8 27.998 -1.8V2.2ZM50.0791 6.97765C55.8009 10.0531 59.978 14.3826 62.6757 19.9909L66.2803 18.2571C63.202 11.8574 58.4111 6.9149 51.9729 3.45435L50.0791 6.97765ZM62.6891 20.0184C65.4875 25.6152 66.924 32.2885 66.924 40.1H70.924C70.924 31.7995 69.3965 24.4888 66.2669 18.2296L62.6891 20.0184ZM66.924 40.1C66.924 47.9106 65.4878 54.6264 62.6846 60.3047L66.2714 62.0753C69.3962 55.7456 70.924 48.4014 70.924 40.1H66.924ZM62.68 60.3141C59.9827 65.8507 55.8004 70.1896 50.0622 73.3456L51.9898 76.8504C58.4116 73.3184 63.1973 68.3853 66.276 62.0659L62.68 60.3141ZM50.0699 73.3414C44.4473 76.4018 37.129 78 27.998 78V82C37.563 82 45.5967 80.3302 51.9821 76.8546L50.0699 73.3414ZM27.998 78H0.752V82H27.998V78ZM15.344 69.46H27.314V65.46H15.344V69.46ZM27.314 69.46C34.18 69.46 39.8383 68.3733 44.1225 66.0212L42.1975 62.5148C38.7297 64.4187 33.824 65.46 27.314 65.46V69.46ZM44.1486 66.0066C48.4015 63.5883 51.4828 60.1349 53.3292 55.6868L49.6348 54.1532C48.1372 57.7611 45.6706 60.5397 42.1714 62.5294L44.1486 66.0066ZM53.3342 55.6746C55.1285 51.2704 55.99 46.06 55.99 40.1H51.99C51.99 45.692 51.1795 50.3616 49.6298 54.1654L53.3342 55.6746ZM55.99 40.1C55.99 34.2121 55.1274 29.0408 53.3342 24.6394L49.6298 26.1486C51.1806 29.9552 51.99 34.5879 51.99 40.1H55.99ZM53.3342 24.6394C51.4917 20.117 48.4121 16.6178 44.1486 14.1934L42.1714 17.6706C45.6599 19.6542 48.1283 22.463 49.6298 26.1486L53.3342 24.6394ZM44.1486 14.1934C39.8573 11.7533 34.1884 10.626 27.314 10.626V14.626C33.8156 14.626 38.7107 15.7027 42.1714 17.6706L44.1486 14.1934ZM27.314 10.626H15.344V14.626H27.314V10.626ZM13.344 12.626V67.46H17.344V12.626H13.344ZM81.7989 80H79.7989V82H81.7989V80ZM81.7989 0.199995V-1.8H79.7989V0.199995H81.7989ZM96.3909 0.199995H98.3909V-1.8H96.3909V0.199995ZM96.3909 80V82H98.3909V80H96.3909ZM83.7989 80V0.199995H79.7989V80H83.7989ZM81.7989 2.2H96.3909V-1.8H81.7989V2.2ZM94.3909 0.199995V80H98.3909V0.199995H94.3909ZM96.3909 78H81.7989V82H96.3909V78ZM132.491 80H130.491V82H132.491V80ZM132.491 51.614H134.491V51.1242L134.265 50.6898L132.491 51.614ZM105.701 0.199995V-1.8H102.404L103.928 1.12419L105.701 0.199995ZM122.231 0.199995L124.035 -0.665286L123.49 -1.8H122.231V0.199995ZM139.901 37.022L138.098 37.8873L139.907 41.6569L141.707 37.8827L139.901 37.022ZM157.457 0.199995V-1.8H156.195L155.652 -0.66074L157.457 0.199995ZM173.759 0.199995L175.535 1.12109L177.05 -1.8H173.759V0.199995ZM147.083 51.614L145.308 50.6929L145.083 51.126V51.614H147.083ZM147.083 80V82H149.083V80H147.083ZM134.491 80V51.614H130.491V80H134.491ZM134.265 50.6898L107.475 -0.724196L103.928 1.12419L130.718 52.5382L134.265 50.6898ZM105.701 2.2H122.231V-1.8H105.701V2.2ZM120.428 1.06528L138.098 37.8873L141.705 36.1567L124.035 -0.665286L120.428 1.06528ZM141.707 37.8827L159.263 1.06073L155.652 -0.66074L138.096 36.1613L141.707 37.8827ZM157.457 2.2H173.759V-1.8H157.457V2.2ZM171.984 -0.721099L145.308 50.6929L148.859 52.5351L175.535 1.12109L171.984 -0.721099ZM145.083 51.614V80H149.083V51.614H145.083ZM147.083 78H132.491V82H147.083V78ZM168.737 80L166.859 79.3131L165.876 82H168.737V80ZM197.921 0.199995V-1.8H196.523L196.043 -0.486938L197.921 0.199995ZM214.337 0.199995L216.216 -0.486938L215.735 -1.8H214.337V0.199995ZM243.521 80V82H246.382L245.4 79.3131L243.521 80ZM228.017 80L226.127 80.6534L226.592 82H228.017V80ZM221.633 61.532L223.523 60.8786L223.058 59.532H221.633V61.532ZM190.511 61.532V59.532H189.095L188.625 60.8682L190.511 61.532ZM184.013 80V82H185.43L185.9 80.6638L184.013 80ZM194.501 50.132L192.612 49.4762L191.69 52.132H194.501V50.132ZM217.643 50.132V52.132H220.464L219.531 49.4704L217.643 50.132ZM206.015 16.958L207.903 16.2964L206.006 10.8852L204.126 16.3022L206.015 16.958ZM170.616 80.6869L199.8 0.886927L196.043 -0.486938L166.859 79.3131L170.616 80.6869ZM197.921 2.2H214.337V-1.8H197.921V2.2ZM212.459 0.886927L241.643 80.6869L245.4 79.3131L216.216 -0.486938L212.459 0.886927ZM243.521 78H228.017V82H243.521V78ZM229.907 79.3466L223.523 60.8786L219.743 62.1854L226.127 80.6534L229.907 79.3466ZM221.633 59.532H190.511V63.532H221.633V59.532ZM188.625 60.8682L182.127 79.3362L185.9 80.6638L192.398 62.1958L188.625 60.8682ZM184.013 78H168.737V82H184.013V78ZM194.501 52.132H217.643V48.132H194.501V52.132ZM219.531 49.4704L207.903 16.2964L204.128 17.6196L215.756 50.7936L219.531 49.4704ZM204.126 16.3022L192.612 49.4762L196.391 50.7878L207.905 17.6138L204.126 16.3022ZM253.801 80H251.801V82H253.801V80ZM253.801 0.199995V-1.8H251.801V0.199995H253.801ZM305.329 0.199995H307.329V-1.8H305.329V0.199995ZM305.329 11.942V13.942H307.329V11.942H305.329ZM268.393 11.942V9.942H266.393V11.942H268.393ZM268.393 34.286H266.393V36.286H268.393V34.286ZM298.261 34.286H300.261V32.286H298.261V34.286ZM298.261 45.8V47.8H300.261V45.8H298.261ZM268.393 45.8V43.8H266.393V45.8H268.393ZM268.393 80V82H270.393V80H268.393ZM255.801 80V0.199995H251.801V80H255.801ZM253.801 2.2H305.329V-1.8H253.801V2.2ZM303.329 0.199995V11.942H307.329V0.199995H303.329ZM305.329 9.942H268.393V13.942H305.329V9.942ZM266.393 11.942V34.286H270.393V11.942H266.393ZM268.393 36.286H298.261V32.286H268.393V36.286ZM296.261 34.286V45.8H300.261V34.286H296.261ZM298.261 43.8H268.393V47.8H298.261V43.8ZM266.393 45.8V80H270.393V45.8H266.393ZM268.393 78H253.801V82H268.393V78ZM302.776 80L300.898 79.3131L299.915 82H302.776V80ZM331.96 0.199995V-1.8H330.562L330.082 -0.486938L331.96 0.199995ZM348.376 0.199995L350.255 -0.486938L349.774 -1.8H348.376V0.199995ZM377.56 80V82H380.421L379.439 79.3131L377.56 80ZM362.056 80L360.166 80.6534L360.632 82H362.056V80ZM355.672 61.532L357.563 60.8786L357.097 59.532H355.672V61.532ZM324.55 61.532V59.532H323.134L322.664 60.8682L324.55 61.532ZM318.052 80V82H319.469L319.939 80.6638L318.052 80ZM328.54 50.132L326.651 49.4762L325.729 52.132H328.54V50.132ZM351.682 50.132V52.132H354.503L353.57 49.4704L351.682 50.132ZM340.054 16.958L341.942 16.2964L340.045 10.8852L338.165 16.3022L340.054 16.958ZM304.655 80.6869L333.839 0.886927L330.082 -0.486938L300.898 79.3131L304.655 80.6869ZM331.96 2.2H348.376V-1.8H331.96V2.2ZM346.498 0.886927L375.682 80.6869L379.439 79.3131L350.255 -0.486938L346.498 0.886927ZM377.56 78H362.056V82H377.56V78ZM363.947 79.3466L357.563 60.8786L353.782 62.1854L360.166 80.6534L363.947 79.3466ZM355.672 59.532H324.55V63.532H355.672V59.532ZM322.664 60.8682L316.166 79.3362L319.939 80.6638L326.437 62.1958L322.664 60.8682ZM318.052 78H302.776V82H318.052V78ZM328.54 52.132H351.682V48.132H328.54V52.132ZM353.57 49.4704L341.942 16.2964L338.167 17.6196L349.795 50.7936L353.57 49.4704ZM338.165 16.3022L326.651 49.4762L330.43 50.7878L341.944 17.6138L338.165 16.3022Z" fill="white"/>
</svg>
