<svg width="40" height="40" viewBox="0 0 40 40" fill="none" xmlns="http://www.w3.org/2000/svg">
<g clip-path="url(#clip0_118_9418)">
<path d="M37.1886 7.86719H9.51073C9.18645 7.86719 8.92354 8.13001 8.92354 8.45438C8.92354 8.77874 9.18645 9.04157 9.51073 9.04157H37.1886C38.0913 9.04157 38.8257 9.77594 38.8257 10.6786V23.1812C38.8257 24.0839 38.0913 24.8182 37.1886 24.8182H35.7826V20.9923C35.7826 20.668 35.5197 20.4052 35.1954 20.4052H4.80461C4.48033 20.4052 4.21742 20.668 4.21742 20.9923V24.8182H2.81146C1.90875 24.8182 1.17438 24.0839 1.17438 23.1812V10.6786C1.17438 9.77594 1.90875 9.04157 2.81146 9.04157H7.16198C7.48626 9.04157 7.74917 8.77874 7.74917 8.45438C7.74917 8.13001 7.48626 7.86719 7.16198 7.86719H2.81146C1.2612 7.86719 0 9.12839 0 10.6786V23.1812C0 24.7314 1.2612 25.9926 2.81146 25.9926H8.92378C9.24806 25.9926 9.51097 25.7298 9.51097 25.4054C9.51097 25.0811 9.24806 24.8182 8.92378 24.8182H5.3918V23.786H28.7275C29.0518 23.786 29.3147 23.5232 29.3147 23.1988C29.3147 22.8745 29.0518 22.6117 28.7275 22.6117H5.3918V21.5795H34.6082V22.6117H31.0763C30.752 22.6117 30.4891 22.8745 30.4891 23.1988C30.4891 23.5232 30.752 23.786 31.0763 23.786H34.6082V24.8182H11.2725C10.9482 24.8182 10.6853 25.0811 10.6853 25.4054C10.6853 25.7298 10.9482 25.9926 11.2725 25.9926H37.1886C38.7389 25.9926 40.0001 24.7314 40.0001 23.1812V10.6786C40 9.12847 38.7388 7.86719 37.1886 7.86719Z" fill="#4B4B4B"/>
<path d="M35.1949 12.6414C35.5192 12.6414 35.7821 12.3786 35.7821 12.0542C35.7821 11.7299 35.5192 11.467 35.1949 11.467H33.4583C33.134 11.467 32.8711 11.7299 32.8711 12.0542C32.8711 12.3786 33.134 12.6414 33.4583 12.6414H35.1949Z" fill="#4B4B4B"/>
<path d="M30.7793 12.6414C31.1036 12.6414 31.3665 12.3786 31.3665 12.0542C31.3665 11.7299 31.1036 11.467 30.7793 11.467H19.6653C19.341 11.467 19.0781 11.7299 19.0781 12.0542C19.0781 12.3786 19.341 12.6414 19.6653 12.6414H30.7793Z" fill="#4B4B4B"/>
<path d="M11.0406 27.5635C10.7164 27.5635 10.4535 27.8263 10.4535 28.1507C10.4535 28.1681 10.4346 29.9089 8.80565 31.0666C8.54134 31.2545 8.47933 31.6211 8.66723 31.8854C8.78177 32.0466 8.96262 32.1325 9.14637 32.1325C9.26405 32.1325 9.38289 32.0972 9.48608 32.0238C11.6036 30.5188 11.6279 28.2466 11.6279 28.1506C11.6278 27.8263 11.3649 27.5635 11.0406 27.5635Z" fill="#4B4B4B"/>
<path d="M15.2513 27.5635C14.927 27.5635 14.6641 27.8263 14.6641 28.1507V31.5452C14.6641 31.8696 14.927 32.1324 15.2513 32.1324C15.5755 32.1324 15.8384 31.8696 15.8384 31.5452V28.1507C15.8384 27.8263 15.5755 27.5635 15.2513 27.5635Z" fill="#4B4B4B"/>
<path d="M20.1614 27.5635C19.8371 27.5635 19.5742 27.8263 19.5742 28.1507V31.5452C19.5742 31.8696 19.8371 32.1324 20.1614 32.1324C20.4857 32.1324 20.7486 31.8696 20.7486 31.5452V28.1507C20.7486 27.8263 20.4857 27.5635 20.1614 27.5635Z" fill="#4B4B4B"/>
<path d="M31.1855 31.0666C29.5784 29.9244 29.5385 28.2261 29.5377 28.148C29.5363 27.8249 29.2739 27.5635 28.9505 27.5635C28.6262 27.5635 28.3633 27.8263 28.3633 28.1507C28.3633 28.2467 28.3876 30.5188 30.5051 32.0239C30.6083 32.0973 30.7271 32.1326 30.8448 32.1326C31.0285 32.1325 31.2094 32.0465 31.324 31.8855C31.5118 31.6211 31.4498 31.2545 31.1855 31.0666Z" fill="#4B4B4B"/>
<path d="M24.7513 27.5635C24.427 27.5635 24.1641 27.8263 24.1641 28.1507V31.5452C24.1641 31.8696 24.427 32.1324 24.7513 32.1324C25.0755 32.1324 25.3384 31.8696 25.3384 31.5452V28.1507C25.3384 27.8263 25.0755 27.5635 24.7513 27.5635Z" fill="#4B4B4B"/>
</g>
<defs>
<clipPath id="clip0_118_9418">
<rect width="40" height="40" fill="white"/>
</clipPath>
</defs>
</svg>
