<svg width="40" height="40" viewBox="0 0 40 40" fill="none" xmlns="http://www.w3.org/2000/svg">
<path d="M19.9219 36.4453C21.3457 36.4453 22.5 35.291 22.5 33.8672C22.5 32.4433 21.3457 31.2891 19.9219 31.2891C18.498 31.2891 17.3438 32.4433 17.3438 33.8672C17.3438 35.291 18.498 36.4453 19.9219 36.4453Z" fill="#4B4B4B"/>
<path d="M39.5805 12.0987C34.4454 6.58914 27.4917 3.55477 19.9997 3.55469C12.5083 3.55477 5.55465 6.58914 0.419429 12.0987C-0.168851 12.73 -0.134086 13.7187 0.497163 14.3071C1.12849 14.8954 2.11716 14.8607 2.70552 14.2294C7.24301 9.36093 13.3849 6.67976 20.0003 6.67968C26.6151 6.67976 32.7569 9.36093 37.2944 14.2294C37.6022 14.5595 38.0194 14.7265 38.4378 14.7265C38.8193 14.7265 39.2017 14.5876 39.5028 14.3071C40.134 13.7187 40.1689 12.73 39.5805 12.0987Z" fill="#4B4B4B"/>
<path d="M33.8434 18.5514C30.0475 14.7269 25.1312 12.6207 20 12.6208C14.8676 12.6209 9.95117 14.7272 6.15649 18.5515C5.54867 19.1641 5.5525 20.1534 6.16508 20.7612C6.77766 21.369 7.76695 21.3652 8.37476 20.7526C11.5783 17.524 15.7069 15.7459 20 15.7458C24.292 15.7457 28.4206 17.5239 31.6253 20.7528C31.9307 21.0605 32.3325 21.2146 32.7343 21.2146C33.1321 21.2146 33.5303 21.0635 33.8351 20.7611C34.4475 20.1532 34.4513 19.1639 33.8434 18.5514Z" fill="#4B4B4B"/>
<path d="M27.5879 25.0228C25.5551 23.0088 22.6413 21.7578 19.9833 21.7578C19.983 21.7578 19.9824 21.7578 19.9821 21.7578H19.8695C19.8691 21.7578 19.8688 21.7578 19.8684 21.7578C17.2103 21.7578 14.2963 23.0089 12.2635 25.0228C11.6506 25.6302 11.646 26.6195 12.2533 27.2325C12.5588 27.5409 12.961 27.6953 13.3633 27.6953C13.7607 27.6953 14.1583 27.5446 14.4629 27.2428C15.91 25.8091 18.0316 24.8828 19.8685 24.8828C19.8688 24.8828 19.8691 24.8828 19.8693 24.8828H19.9823C19.9827 24.8828 19.9827 24.8828 19.9831 24.8828C21.8197 24.8828 23.9415 25.8091 25.3884 27.2428C26.0014 27.8501 26.9909 27.8457 27.5981 27.2325C28.2055 26.6195 28.2009 25.6302 27.5879 25.0228Z" fill="#4B4B4B"/>
</svg>
