<svg width="40" height="40" viewBox="0 0 40 40" fill="none" xmlns="http://www.w3.org/2000/svg">
<path d="M38.5965 6.32104H1.40349C0.62964 6.32104 0 6.95068 0 7.72453V29.4603C0 30.2342 0.62964 30.8638 1.40349 30.8638H16.1623V32.2756H8.53785C8.15031 32.2756 7.83611 32.5898 7.83611 32.9773C7.83611 33.3648 8.15031 33.679 8.53785 33.679H31.608C31.9956 33.679 32.3098 33.3648 32.3098 32.9773C32.3098 32.5898 31.9956 32.2756 31.608 32.2756H23.8888V30.8638H38.5965C39.3704 30.8638 40 30.2342 40 29.4603V7.72453C40 6.9506 39.3704 6.32104 38.5965 6.32104ZM22.4854 32.2755H17.5659V30.8637H22.4854V32.2755ZM32.5639 29.4603L17.3712 14.2677C17.0972 13.9936 16.6529 13.9936 16.3789 14.2677C16.1048 14.5417 16.1048 14.986 16.3789 15.26L30.5791 29.4603H1.40349V7.72453H8.84329L13.5719 12.4531C13.7089 12.5902 13.8885 12.6587 14.0681 12.6587C14.2478 12.6587 14.4273 12.5902 14.5643 12.4531C14.8385 12.1791 14.8385 11.7348 14.5643 11.4608L10.8282 7.72462H38.5966L38.5967 29.4604H32.5639V29.4603Z" fill="#4B4B4B"/>
<path d="M18.9244 28.7914H21.0735C21.461 28.7914 21.7752 28.4772 21.7752 28.0897C21.7752 27.7021 21.461 27.3879 21.0735 27.3879H18.9244C18.5369 27.3879 18.2227 27.7021 18.2227 28.0897C18.2227 28.4772 18.5369 28.7914 18.9244 28.7914Z" fill="#4B4B4B"/>
</svg>
