<svg width="40" height="40" viewBox="0 0 40 40" fill="none" xmlns="http://www.w3.org/2000/svg">
<g clip-path="url(#clip0_118_9369)">
<path d="M18.3148 7.28189C17.141 4.79611 14.6071 3.18994 11.8594 3.18994C11.4279 3.18994 11.0781 3.53978 11.0781 3.97119C11.0781 4.4026 11.428 4.75252 11.8595 4.75252C14.0057 4.75252 15.985 6.00728 16.9019 7.94907C17.0353 8.23149 17.316 8.39689 17.6089 8.39689C17.7206 8.39689 17.8342 8.37274 17.9419 8.32196C18.3321 8.13774 18.4991 7.67204 18.3148 7.28189Z" fill="#4B4B4B"/>
<path d="M18.9999 10.2875C18.9969 9.85615 18.6437 9.50654 18.2132 9.51178C17.7817 9.51482 17.4345 9.86709 17.4375 10.2986V10.3254C17.4375 10.7568 17.7873 11.1066 18.2188 11.1066C18.6503 11.1066 19 10.7568 19 10.3254L18.9999 10.2875Z" fill="#4B4B4B"/>
<path d="M14.2031 8.77661C13.7716 8.77661 13.4219 9.12645 13.4219 9.55786V12.9111C13.4219 13.3425 13.7716 13.6923 14.2031 13.6923C14.6346 13.6923 14.9844 13.3425 14.9844 12.9111V9.55786C14.9844 9.12638 14.6346 8.77661 14.2031 8.77661Z" fill="#4B4B4B"/>
<path d="M11.0781 8.77661C10.6466 8.77661 10.2969 9.12645 10.2969 9.55786V12.9111C10.2969 13.3425 10.6466 13.6923 11.0781 13.6923C11.5096 13.6923 11.8594 13.3425 11.8594 12.9111V9.55786C11.8594 9.12645 11.5096 8.77661 11.0781 8.77661Z" fill="#4B4B4B"/>
<path d="M7.95312 8.77661C7.52164 8.77661 7.17188 9.12645 7.17188 9.55786V12.9111C7.17188 13.3425 7.52164 13.6923 7.95312 13.6923C8.38461 13.6923 8.73437 13.3425 8.73437 12.9111V9.55786C8.73437 9.12645 8.38461 8.77661 7.95312 8.77661Z" fill="#4B4B4B"/>
<path d="M39.5802 13.8549C38.5768 13.3309 37.3778 13.3291 36.3752 13.8489C36.3745 13.8493 36.367 13.8531 36.3662 13.8536C35.8083 14.1429 35.1421 14.1428 34.5842 13.8535C34.581 13.8519 34.5779 13.8502 34.5747 13.8487C33.5684 13.3304 32.3685 13.332 31.3632 13.8532C30.9802 14.0518 30.8306 14.5234 31.0292 14.9063C31.2279 15.2895 31.6995 15.4389 32.0824 15.2403C32.6404 14.951 33.3065 14.951 33.8644 15.2403C33.8675 15.242 33.8707 15.2435 33.8738 15.2452C34.376 15.5038 34.9261 15.6329 35.476 15.6329C36.0283 15.6329 36.5805 15.5025 37.0831 15.2418C37.0838 15.2414 37.0913 15.2376 37.0921 15.2372C37.6449 14.9505 38.3046 14.9514 38.8568 15.2399C39.2393 15.4395 39.7113 15.2915 39.911 14.9091C40.1108 14.5266 39.9627 14.0546 39.5802 13.8549Z" fill="#4B4B4B"/>
<path d="M39.5802 10.3538C38.5768 9.82981 37.3778 9.82801 36.3662 10.3525C35.8092 10.6414 35.1439 10.6417 34.5864 10.3536C34.5855 10.3532 34.5846 10.3527 34.5838 10.3522C33.5756 9.82942 32.3716 9.82926 31.3632 10.3521C30.9802 10.5507 30.8306 11.0222 31.0292 11.4052C31.2279 11.7882 31.6995 11.9378 32.0824 11.7392C32.6396 11.4503 33.3046 11.45 33.8619 11.7378C33.8629 11.7384 33.8638 11.7389 33.8649 11.7395C34.3682 12.0005 34.9203 12.1312 35.4733 12.1312C36.0281 12.1312 36.5838 11.9996 37.092 11.7361C37.645 11.4493 38.3048 11.4503 38.8568 11.7387C39.2393 11.9382 39.7113 11.7903 39.911 11.4079C40.1107 11.0256 39.9626 10.5536 39.5802 10.3538Z" fill="#4B4B4B"/>
<path d="M39.5802 6.92353C38.577 6.39971 37.378 6.39783 36.3662 6.92221C35.8098 7.21064 35.1456 7.2115 34.5886 6.92447C34.587 6.92361 34.5854 6.92283 34.5838 6.92197C33.5756 6.39916 32.3716 6.399 31.3632 6.92182C30.9802 7.12041 30.8306 7.59197 31.0292 7.97494C31.2279 8.35806 31.6994 8.50759 32.0824 8.309C32.6388 8.02049 33.303 8.01978 33.8599 8.30666C33.8615 8.30759 33.8631 8.30838 33.8649 8.30931C34.3682 8.57033 34.9203 8.70103 35.4733 8.70103C36.0281 8.70103 36.5838 8.56939 37.092 8.30588C37.645 8.01908 38.3048 8.02009 38.8568 8.30853C39.2393 8.50814 39.7113 8.36025 39.911 7.97775C40.1107 7.59525 39.9626 7.1233 39.5802 6.92353Z" fill="#4B4B4B"/>
<path d="M26.7249 5.00178H20.3642C19.4102 3.55311 18.1228 2.33866 16.6187 1.47264C14.9334 0.502254 13.0073 -0.00993219 11.0533 0.000145915C5.00145 0.0217084 0.0430188 4.9624 0.000284483 11.0138C-0.0207311 13.9929 1.12325 16.7971 3.22153 18.9103C3.85856 19.5518 4.56012 20.1053 5.31129 20.5657V30.5481C5.31129 33.1774 7.26082 35.3592 9.79019 35.726C10.0439 38.1246 12.077 39.9998 14.5399 39.9998C17.1638 39.9998 19.2985 37.8553 19.2985 35.2194V27.8905C19.2985 26.9188 19.6462 25.9819 20.2774 25.2521C20.5596 24.926 20.5239 24.4327 20.1976 24.1504C19.8713 23.8682 19.3779 23.9038 19.0956 24.2302C18.2188 25.2437 17.736 26.5437 17.736 27.8906V35.2195C17.736 36.994 16.3021 38.4375 14.5398 38.4375C12.9363 38.4375 11.6035 37.2558 11.364 35.7166C13.8614 35.322 15.7773 33.1548 15.7773 30.5481V21.1504C16.069 21.0146 16.3556 20.8669 16.635 20.7054C18.1321 19.8401 19.4136 18.629 20.3641 17.1858H26.7249C28.0634 17.1858 29.1525 16.0968 29.1525 14.7582V7.42935C29.1525 6.09076 28.0635 5.00178 26.7249 5.00178ZM14.2149 30.5481C14.2149 32.5721 12.5683 34.2187 10.5444 34.2187C8.52035 34.2188 6.87379 32.5722 6.87379 30.5481V21.3599C8.19457 21.9027 9.62183 22.1875 11.0939 22.1875C12.1549 22.1875 13.2061 22.0343 14.2149 21.7391V30.5481ZM27.59 14.7582C27.59 15.2352 27.2019 15.6233 26.7249 15.6233H19.9331C19.6591 15.6233 19.4051 15.7668 19.2638 16.0016C17.5206 18.8967 14.4664 20.625 11.0937 20.625C9.51589 20.625 7.99793 20.2442 6.64293 19.5269C6.54371 19.4283 6.41793 19.357 6.27754 19.3228C5.57473 18.9097 4.9202 18.4035 4.33012 17.8093C2.52755 15.9939 1.54474 13.5844 1.56278 11.0248C1.5995 5.82591 5.85949 1.58116 11.0589 1.56264C11.0702 1.56256 11.0814 1.56256 11.0925 1.56256C14.4168 1.56256 17.5455 3.33178 19.2639 6.18599C19.4053 6.42076 19.6592 6.56427 19.9332 6.56427H24.62V13.6339C24.62 14.0653 24.9698 14.4151 25.4013 14.4151C25.8327 14.4151 26.1825 14.0653 26.1825 13.6339V6.5642H26.7249C27.2019 6.5642 27.59 6.95232 27.59 7.42927V14.7582Z" fill="#4B4B4B"/>
<path d="M27.2506 23.9425C26.1885 22.89 24.783 22.3105 23.293 22.3105C22.6215 22.3105 21.9654 22.4291 21.3428 22.6628C20.9389 22.8145 20.7343 23.2649 20.886 23.6688C21.0376 24.0728 21.488 24.2773 21.892 24.1257C22.3383 23.958 22.8097 23.8731 23.2931 23.8731C24.3685 23.873 25.3833 24.2919 26.1508 25.0524C26.9186 25.8132 27.3414 26.8213 27.3414 27.8908V30.3401H27.3413C27.3413 30.7715 27.691 31.1214 28.1225 31.1214C28.554 31.1214 28.9038 30.7715 28.9038 30.3401V27.8908C28.9038 26.4012 28.3167 24.9989 27.2506 23.9425Z" fill="#4B4B4B"/>
<path d="M28.6773 32.2751C28.532 32.1298 28.3304 32.0461 28.125 32.0461C27.9195 32.0461 27.718 32.1297 27.5727 32.2751C27.4273 32.4212 27.3438 32.6219 27.3438 32.8274C27.3438 33.0337 27.4273 33.2344 27.5727 33.3805C27.718 33.5258 27.9195 33.6095 28.125 33.6095C28.3305 33.6095 28.532 33.5259 28.6773 33.3805C28.8227 33.2344 28.9062 33.0337 28.9062 32.8274C28.9062 32.6219 28.8227 32.4212 28.6773 32.2751Z" fill="#4B4B4B"/>
<path d="M39.2189 29.2188H38.4397C36.7176 29.2188 35.3167 30.6198 35.3167 32.3418V35.2195C35.3167 36.994 33.8829 38.4375 32.1205 38.4375C30.3481 38.4375 28.9062 36.9939 28.9062 35.2195C28.9062 34.7881 28.5565 34.4383 28.125 34.4383C27.6935 34.4383 27.3438 34.7881 27.3438 35.2195C27.3438 37.8554 29.4866 40 32.1205 40C34.7444 40 36.8792 37.8554 36.8792 35.2195V32.3418C36.8792 31.4813 37.5792 30.7812 38.4397 30.7812H39.2189C39.6504 30.7812 40.0001 30.4314 40.0001 30C40.0001 29.5686 39.6503 29.2188 39.2189 29.2188Z" fill="#4B4B4B"/>
</g>
<defs>
<clipPath id="clip0_118_9369">
<rect width="40" height="40" fill="white"/>
</clipPath>
</defs>
</svg>
