<svg width="40" height="40" viewBox="0 0 40 40" fill="none" xmlns="http://www.w3.org/2000/svg">
<path d="M34.7964 32.824L31.8376 15.2451V6.49906C31.8376 6.49553 31.8376 6.49236 31.8376 6.48883C31.8364 5.39051 31.3996 4.33752 30.6229 3.56088C29.8463 2.78425 28.7933 2.3474 27.695 2.34619H12.3432C11.2449 2.3474 10.1919 2.78425 9.41529 3.56088C8.63865 4.33752 8.20181 5.39051 8.20059 6.48883C8.20059 6.65247 8.2656 6.8094 8.38131 6.92511C8.49701 7.04082 8.65395 7.10582 8.81758 7.10582H10.5846L12.5019 9.35801C12.5599 9.42597 12.632 9.48056 12.7131 9.51799C12.7942 9.55542 12.8825 9.57482 12.9719 9.57484H13.7616V13.446C13.7616 13.527 13.7775 13.6073 13.8085 13.6822C13.8395 13.757 13.8849 13.8251 13.9422 13.8824C13.9995 13.9397 14.0676 13.9851 14.1424 14.0161C14.2173 14.0471 14.2976 14.063 14.3786 14.063H14.7033L15.1828 17.0066C15.2064 17.1511 15.2806 17.2825 15.3921 17.3774C15.5036 17.4722 15.6453 17.5244 15.7917 17.5245H17.1C17.2467 17.5246 17.3886 17.4726 17.5004 17.3777C17.6122 17.2829 17.6866 17.1513 17.7103 17.0066L18.1895 14.063H18.5152C18.6789 14.063 18.8358 13.998 18.9515 13.8823C19.0672 13.7666 19.1322 13.6096 19.1322 13.446V9.57484H19.922C20.0113 9.57486 20.0995 9.55548 20.1806 9.51804C20.2617 9.48061 20.3337 9.426 20.3916 9.35801L22.3092 7.10582H24.7419V31.1307H19.5271C20.0295 30.6821 20.4315 30.1325 20.7069 29.5178C20.9823 28.9032 21.1249 28.2373 21.1253 27.5638V22.6659C21.1253 22.5023 21.0603 22.3454 20.9446 22.2297C20.8289 22.114 20.6719 22.0489 20.5083 22.0489H12.1398C11.9762 22.049 11.8193 22.1141 11.7036 22.2298C11.5879 22.3454 11.5229 22.5023 11.5228 22.6659V22.8736H11.4135C10.6066 22.8736 9.83266 23.1942 9.26205 23.7648C8.69145 24.3354 8.37088 25.1093 8.37088 25.9162C8.37088 26.7232 8.69145 27.4971 9.26205 28.0677C9.83266 28.6383 10.6066 28.9589 11.4135 28.9589H11.7308C11.9878 29.7959 12.4685 30.5469 13.121 31.1307H5.76543C5.60179 31.1307 5.44486 31.1957 5.32915 31.3114C5.21344 31.4271 5.14844 31.584 5.14844 31.7477V37.0361C5.14844 37.1998 5.21344 37.3567 5.32915 37.4724C5.44486 37.5881 5.60179 37.6531 5.76543 37.6531H30.7112C31.3134 37.6531 31.9083 37.5218 32.4546 37.2684C33.0009 37.015 33.4853 36.6455 33.8742 36.1857C34.2631 35.7259 34.547 35.1868 34.7063 34.6061C34.8656 34.0253 34.8963 33.4168 34.7964 32.823V32.824ZM11.4135 27.7249C10.9338 27.7249 10.4738 27.5343 10.1346 27.1952C9.79542 26.856 9.60486 26.3959 9.60486 25.9162C9.60486 25.4365 9.79542 24.9765 10.1346 24.6373C10.4738 24.2981 10.9338 24.1076 11.4135 24.1076H11.5214C11.5249 26.0633 11.5147 27.2807 11.5295 27.7249H11.4135ZM12.8185 28.2185V28.2164C12.7332 27.758 12.7557 28.02 12.7557 23.2822H19.8917V27.5638C19.8906 28.5061 19.517 29.4099 18.8524 30.078C18.1879 30.7462 17.2861 31.1245 16.3438 31.1307H16.3032C15.4749 31.1248 14.6743 30.8312 14.0386 30.3001C13.4029 29.7689 12.9716 29.0333 12.8185 28.2192V28.2185ZM24.7391 36.4192H6.38242V32.3647H24.7391V36.4192ZM16.5758 16.2905H16.3163L15.9535 14.0637H16.9382L16.5758 16.2905ZM17.8972 12.829H14.9956V9.57484H17.8972V12.829ZM19.6357 8.34086H13.2571L12.2054 7.10688H20.6874L19.6357 8.34086ZM9.5005 5.8729C9.64231 5.22418 10.0014 4.64335 10.5184 4.22659C11.0354 3.80983 11.6792 3.58214 12.3432 3.58123H27.696C28.3601 3.58212 29.004 3.8098 29.521 4.22655C30.0381 4.64331 30.3973 5.22415 30.5391 5.8729H9.5005ZM30.6036 7.10688V14.687H25.9745V7.10688H30.6036ZM32.9306 35.3907C32.6578 35.7139 32.3176 35.9736 31.934 36.1516C31.5503 36.3296 31.1324 36.4216 30.7094 36.4213H25.9713C25.9713 31.1977 25.9713 33.3578 25.9713 15.9214H30.6957L33.5754 33.0307C33.6462 33.447 33.6253 33.8738 33.5142 34.2812C33.403 34.6886 33.2044 35.0669 32.932 35.3897L32.9306 35.3907Z" fill="#4B4B4B"/>
<path d="M28.9024 18.4275C28.8937 18.347 28.8692 18.2689 28.8303 18.1978C28.7914 18.1268 28.7389 18.064 28.6757 18.0132C28.6126 17.9624 28.5401 17.9246 28.4623 17.9018C28.3845 17.879 28.303 17.8718 28.2225 17.8805C28.1419 17.8893 28.0639 17.9138 27.9928 17.9527C27.9217 17.9916 27.8589 18.0441 27.8081 18.1072C27.7574 18.1704 27.7195 18.2429 27.6967 18.3206C27.674 18.3984 27.6667 18.4799 27.6755 18.5605L29.1834 32.5026C29.201 32.6653 29.2825 32.8144 29.4101 32.917C29.5376 33.0195 29.7006 33.0673 29.8633 33.0496C30.026 33.032 30.175 32.9505 30.2776 32.823C30.3802 32.6955 30.4279 32.5324 30.4103 32.3697L28.9024 18.4275Z" fill="#4B4B4B"/>
</svg>
