<svg width="40" height="40" viewBox="0 0 40 40" fill="none" xmlns="http://www.w3.org/2000/svg">
<g clip-path="url(#clip0_118_9451)">
<path d="M16.0688 13.9947C16.0274 14.6154 16.0028 15.2794 16.0028 16C16.0028 19.3392 16.9994 21.3332 18.6693 21.3332C20.774 21.3332 21.3359 18.8186 21.3359 17.3333C21.3359 16.9647 21.038 16.6667 20.6693 16.6667C20.3013 16.6667 20.0027 16.9647 20.0027 17.3333C20.0027 17.36 19.9453 19.9999 18.6693 19.9999C17.8967 19.9999 17.336 18.3173 17.336 16C17.336 8.2275 20.0639 7.34221 20.1493 7.31682C20.5013 7.23752 20.7273 6.89152 20.6559 6.53551C20.5839 6.17481 20.2346 5.94021 19.8713 6.01286C19.7379 6.0395 19.2553 6.16684 18.6739 6.66418C18.6746 6.55019 18.6839 6.43551 18.7146 6.32153C18.8067 5.97755 19.0273 5.69021 19.336 5.51154C19.6446 5.3342 20.0033 5.28624 20.3473 5.37889C20.6912 5.47092 20.9793 5.69154 21.1565 6.00021C21.5245 6.63621 21.3052 7.45353 20.6686 7.8215C20.3499 8.00548 20.2413 8.41352 20.4252 8.73218C20.5486 8.94616 20.7726 9.06553 21.0032 9.06553C21.1166 9.06553 21.2312 9.03686 21.3358 8.97624C22.6085 8.24024 23.0458 6.60629 22.3118 5.33366C21.9552 4.71633 21.3805 4.27571 20.6926 4.09103C20.0026 3.90634 19.2853 4.00173 18.6693 4.35704C18.0519 4.71367 17.6106 5.28835 17.4266 5.977C17.254 6.62097 17.3353 7.28901 17.6493 7.89829C17.0773 8.82897 16.5427 10.2149 16.2453 12.2755C15.2467 11.0803 14.6693 9.55826 14.6693 8.00032C14.6693 4.32438 17.66 1.33382 21.3358 1.33382C25.0111 1.33382 28.0023 4.32446 28.0023 8.00032C28.0023 11.6762 25.0111 14.6668 21.3358 14.6668C20.6112 14.6668 19.8999 14.5515 19.2199 14.3248C18.8712 14.2088 18.4939 14.3961 18.3765 14.7455C18.2599 15.0948 18.4486 15.4721 18.7979 15.5888C19.6138 15.8615 20.4678 16.0002 21.3358 16.0002C25.747 16.0002 29.3356 12.4109 29.3356 8.00032C29.3356 3.58908 25.747 0.000488281 21.3358 0.000488281C16.9245 0.000488281 13.3359 3.58908 13.3359 8.00032C13.3362 10.2735 14.3568 12.4821 16.0688 13.9947Z" fill="#4B4B4B"/>
<path d="M8.67053 25.3333H14.0038C14.7811 25.3333 16.1037 26.3253 17.2703 27.1999C18.733 28.2973 20.1143 29.3332 21.3369 29.3332H25.3368C26.3488 29.3332 26.8521 29.7925 26.8655 29.8046C26.9955 29.9346 27.1662 29.9999 27.3368 29.9999C27.5075 29.9999 27.6775 29.9346 27.8081 29.8046C28.0681 29.5439 28.0681 29.1219 27.8081 28.8619C27.7201 28.7733 26.9008 27.9999 25.3368 27.9999H21.3369C20.559 27.9999 19.2369 27.0079 18.0703 26.1333C16.6077 25.036 15.2257 24 14.0038 24H8.67053C8.30257 24 8.00391 24.298 8.00391 24.6666C8.00391 25.0347 8.30257 25.3333 8.67053 25.3333Z" fill="#4B4B4B"/>
<path d="M29.2696 13.5477L35.9982 20.2762V22.6669H33.6075L33.3315 22.3909V20.6669C33.3315 20.2982 33.0335 20.0003 32.6649 20.0003H31.9983V19.3337C31.9983 18.965 31.7003 18.667 31.3316 18.667H29.6083L29.3317 18.3904V16.6671C29.3317 16.2984 29.0337 16.0004 28.665 16.0004H26.9411L26.8764 15.9358C26.6164 15.6751 26.1944 15.6751 25.9338 15.9358C25.6732 16.1965 25.6731 16.6178 25.9338 16.8784L26.1938 17.1384C26.3185 17.2631 26.4877 17.3337 26.6651 17.3337H27.9983V18.6657C27.9983 18.8423 28.0683 19.0117 28.193 19.137L28.8597 19.8044C28.9843 19.9297 29.1543 20.0004 29.3317 20.0004H30.665V20.667C30.665 21.0349 30.963 21.3336 31.3316 21.3336H31.9983V22.6669C31.9983 22.8436 32.0683 23.013 32.1936 23.1383L32.8602 23.8049C32.9849 23.9296 33.1542 24.0002 33.3315 24.0002H36.6648C37.0335 24.0002 37.3314 23.7015 37.3314 23.3336V20.0003C37.3314 19.8236 37.2607 19.6537 37.1361 19.529L30.2123 12.6051C29.9516 12.3445 29.5303 12.3445 29.2696 12.6051C29.009 12.8657 29.009 13.287 29.2696 13.5477Z" fill="#4B4B4B"/>
<path d="M3.33199 35.6665C3.33199 35.1152 2.88333 34.6665 2.33201 34.6665C1.78069 34.6665 1.33203 35.1152 1.33203 35.6665C1.33203 36.2178 1.78069 36.6665 2.33201 36.6665C2.88333 36.6665 3.33199 36.2178 3.33199 35.6665Z" fill="#4B4B4B"/>
<path d="M4.66654 21.3335H0.666626C0.298665 21.3335 0 21.6315 0 22.0001C0 22.3681 0.298665 22.6667 0.666626 22.6667H4.66654C5.03387 22.6667 5.33317 22.9654 5.33317 23.3334V37.9997C5.33317 38.367 5.03387 38.6663 4.66654 38.6663H0.666626C0.298665 38.6663 0 38.9643 0 39.333C0 39.7009 0.298665 39.9996 0.666626 39.9996H4.66654C5.76917 39.9996 6.6665 39.1023 6.6665 37.9996V23.3335C6.6665 22.2302 5.76917 21.3335 4.66654 21.3335Z" fill="#4B4B4B"/>
<path d="M39.6459 28.0002C38.9106 26.7262 37.2739 26.2902 36.0446 27.0022L28.3721 30.7368C27.1788 31.3334 25.9756 31.3334 23.3369 31.3334C20.7577 31.3334 16.8191 30.6821 16.7797 30.6755C16.4137 30.6148 16.0731 30.8608 16.0124 31.2235C15.9524 31.5868 16.1977 31.9301 16.5604 31.9908C16.7264 32.0187 20.6463 32.6668 23.3369 32.6668C26.1048 32.6668 27.4941 32.6668 28.9614 31.9328L36.6699 28.1789C36.9779 28.0009 37.3373 27.9536 37.6812 28.0456C38.0252 28.1375 38.3133 28.3582 38.4905 28.6669C38.6692 28.9755 38.7165 29.3348 38.6239 29.6789C38.5325 30.0222 38.3119 30.3102 37.9839 30.4996L28.9707 36.1094C28.9521 36.1215 27.0287 37.3334 22.6702 37.3334C18.891 37.3334 13.0525 34.1161 12.9684 34.0701C12.9084 34.0401 11.4624 33.3335 8.67053 33.3335C8.30257 33.3335 8.00391 33.6314 8.00391 34.0001C8.00391 34.3681 8.30257 34.6667 8.67053 34.6667C11.0952 34.6667 12.3444 35.2494 12.3465 35.2494C12.5985 35.3894 18.545 38.6666 22.6702 38.6666C27.4828 38.6666 29.6181 37.28 29.6888 37.2327L38.6699 31.6428C39.2865 31.2868 39.7278 30.7115 39.9119 30.0236C40.0966 29.3354 40.0019 28.6168 39.6459 28.0002Z" fill="#4B4B4B"/>
</g>
<defs>
<clipPath id="clip0_118_9451">
<rect width="40" height="40" fill="white"/>
</clipPath>
</defs>
</svg>
