<svg width="40" height="40" viewBox="0 0 40 40" fill="none" xmlns="http://www.w3.org/2000/svg">
<path d="M36.7015 34.8353H2.92264C2.38488 34.8346 1.86935 34.6206 1.48915 34.2403C1.10894 33.86 0.895103 33.3444 0.894531 32.8066V23.259C0.894531 23.1157 0.951481 22.9782 1.05285 22.8768C1.15422 22.7755 1.29171 22.7185 1.43507 22.7185H38.1918C38.3352 22.7185 38.4727 22.7755 38.574 22.8768C38.6754 22.9782 38.7324 23.1157 38.7324 23.259V32.8066C38.7318 33.3449 38.5176 33.8608 38.1368 34.2412C37.756 34.6216 37.2398 34.8353 36.7015 34.8353ZM1.97453 23.7996V32.8066C1.97482 33.0579 2.07482 33.2989 2.25257 33.4765C2.43033 33.6542 2.67132 33.754 2.92264 33.7542H36.7015C36.9528 33.7539 37.1936 33.654 37.3713 33.4763C37.5489 33.2987 37.6488 33.0578 37.6491 32.8066V23.7996H1.97453Z" fill="#4B4B4B"/>
<path d="M38.1878 23.8029H1.43098C1.34405 23.8029 1.25841 23.7819 1.18133 23.7417C1.10424 23.7015 1.03798 23.6433 0.988167 23.5721C0.938355 23.5009 0.906461 23.4186 0.895189 23.3324C0.883917 23.2463 0.8936 23.1586 0.923417 23.077L4.41963 13.4948C4.56342 13.1049 4.82302 12.7682 5.1636 12.5301C5.50418 12.2919 5.90945 12.1636 6.32504 12.1624H11.9607C12.1041 12.1624 12.2416 12.2193 12.3429 12.3207C12.4443 12.422 12.5013 12.5595 12.5013 12.7029C12.5013 12.8463 12.4443 12.9837 12.3429 13.0851C12.2416 13.1865 12.1041 13.2434 11.9607 13.2434H6.32504C6.13105 13.244 5.94186 13.3038 5.78283 13.4149C5.6238 13.526 5.50255 13.6831 5.43531 13.8651L2.20396 22.7218H37.4148L34.178 13.8656C34.1119 13.6829 33.9909 13.525 33.8316 13.4137C33.6724 13.3023 33.4826 13.2429 33.2883 13.2434H28.5315C28.3882 13.2434 28.2507 13.1865 28.1493 13.0851C28.0479 12.9837 27.991 12.8463 27.991 12.7029C27.991 12.5595 28.0479 12.422 28.1493 12.3207C28.2507 12.2193 28.3882 12.1624 28.5315 12.1624H33.2883C33.7045 12.1617 34.1109 12.2894 34.4519 12.528C34.793 12.7666 35.0522 13.1046 35.1942 13.4959L38.6959 23.0742C38.7258 23.156 38.7356 23.2437 38.7243 23.33C38.7131 23.4164 38.6812 23.4987 38.6313 23.57C38.5814 23.6413 38.515 23.6996 38.4378 23.7397C38.3606 23.7799 38.2748 23.8008 38.1878 23.8007V23.8029Z" fill="#4B4B4B"/>
<path d="M19.8091 21.1217C15.7891 21.1217 8.1875 20.4649 8.1875 17.9806C8.1875 17.0076 9.29182 16.2585 11.5626 15.6855C11.6319 15.6668 11.7042 15.662 11.7753 15.6715C11.8465 15.681 11.915 15.7046 11.9769 15.7409C12.0388 15.7771 12.0929 15.8254 12.136 15.8828C12.1791 15.9401 12.2103 16.0055 12.2278 16.0751C12.2454 16.1447 12.2489 16.2171 12.2382 16.288C12.2275 16.359 12.2027 16.4271 12.1654 16.4884C12.1281 16.5497 12.079 16.6029 12.0208 16.645C11.9627 16.6871 11.8968 16.7172 11.827 16.7336C9.73885 17.2606 9.26858 17.8244 9.26858 17.9806C9.26858 18.6795 12.9891 20.0406 19.8091 20.0406C26.6291 20.0406 30.3497 18.6795 30.3497 17.9806C30.3497 17.8379 29.9345 17.3185 28.0902 16.8125C27.9519 16.7745 27.8344 16.6832 27.7635 16.5585C27.6926 16.4339 27.6741 16.2862 27.7121 16.1479C27.7501 16.0096 27.8414 15.8921 27.9661 15.8212C28.0907 15.7503 28.2384 15.7318 28.3767 15.7698C30.4307 16.3336 31.4307 17.0568 31.4307 17.9806C31.4307 20.4649 23.8286 21.1217 19.8091 21.1217Z" fill="#4B4B4B"/>
<path d="M14.2027 20.7644C14.0942 20.7645 13.9881 20.7319 13.8984 20.6709C10.547 18.3882 10.8351 15.5434 11.7086 11.1288C12.4821 7.22228 10.2281 5.20823 10.2054 5.18931C10.1317 5.12525 10.0768 5.04242 10.0464 4.94963C10.016 4.85685 10.0113 4.75756 10.0328 4.66233C10.0543 4.56709 10.1012 4.47946 10.1685 4.40873C10.2359 4.33801 10.3211 4.28684 10.4151 4.26066C11.9161 3.87513 13.4741 3.76181 15.0151 3.92607C16.0195 4.03241 17.0072 4.26095 17.9562 4.60661C19.4103 5.11634 23.0243 6.22823 25.1708 5.55255C26.7832 5.0439 28.0113 5.00174 28.8216 5.42715C29.1708 5.58938 29.4425 5.88202 29.5784 6.24228C29.5986 6.308 29.6061 6.37698 29.6005 6.44553L28.4849 19.7904C28.4796 19.8616 28.4603 19.9311 28.4281 19.9949C28.3958 20.0586 28.3513 20.1153 28.297 20.1618C28.2427 20.2082 28.1797 20.2434 28.1117 20.2653C28.0437 20.2872 27.9721 20.2955 27.9009 20.2896C27.8297 20.2836 27.7604 20.2636 27.697 20.2308C27.6335 20.1979 27.5773 20.1528 27.5314 20.098C27.4855 20.0432 27.451 19.9799 27.4297 19.9117C27.4084 19.8435 27.4009 19.7718 27.4076 19.7007L28.5086 6.50769C28.32 6.29147 27.5157 5.94553 25.4962 6.58282C23.127 7.32931 19.5313 6.3039 17.5984 5.62607C16.7315 5.30964 15.8294 5.09999 14.9119 5.00174C13.7958 4.88871 12.6697 4.92507 11.5632 5.10985C12.1955 6.00326 12.6301 7.02119 12.8381 8.09578C13.046 9.17037 13.0225 10.2769 12.7692 11.3417C11.9378 15.5428 11.6378 17.8282 14.507 19.7796C14.6026 19.8446 14.6749 19.9385 14.7132 20.0477C14.7515 20.1568 14.7537 20.2753 14.7197 20.3858C14.6856 20.4963 14.617 20.593 14.524 20.6616C14.4309 20.7302 14.3183 20.7672 14.2027 20.7671V20.7644Z" fill="#4B4B4B"/>
<path d="M27.8557 20.3087C27.7273 20.3085 27.6031 20.2626 27.5055 20.1792C27.4078 20.0958 27.343 19.9803 27.3228 19.8535C26.5719 15.1573 22.679 10.8049 22.6395 10.7616C22.5773 10.6927 22.5338 10.609 22.5133 10.5184C22.4928 10.4278 22.496 10.3335 22.5226 10.2446C22.5491 10.1556 22.5982 10.075 22.665 10.0104C22.7317 9.94592 22.814 9.89969 22.9038 9.87621C26.2909 8.99243 28.6114 6.09243 28.6336 6.0654C28.7234 5.95619 28.8524 5.88652 28.9929 5.8713C29.1335 5.85609 29.2744 5.89655 29.3855 5.98402C29.4966 6.07148 29.569 6.19898 29.5871 6.33919C29.6053 6.47939 29.5679 6.62114 29.4828 6.73405C28.0144 8.49552 26.12 9.8522 23.9795 10.6751C25.1298 12.1005 27.7541 15.7114 28.3892 19.6827C28.4118 19.8243 28.3772 19.969 28.2931 20.0851C28.209 20.2011 28.0822 20.279 27.9406 20.3016C27.9125 20.3063 27.8842 20.3086 27.8557 20.3087Z" fill="#4B4B4B"/>
</svg>
