<svg width="40" height="40" viewBox="0 0 40 40" fill="none" xmlns="http://www.w3.org/2000/svg">
<g clip-path="url(#clip0_118_9409)">
<path d="M25.4688 16.4844C25.4688 14.1151 23.5412 12.1875 21.1719 12.1875H15.3125C14.8811 12.1875 14.5312 12.5373 14.5312 12.9688V20C14.5312 20.4314 14.8811 20.7812 15.3125 20.7812H21.1719C23.5412 20.7812 25.4688 18.8537 25.4688 16.4844ZM16.0938 13.75H21.1719C22.6796 13.75 23.9062 14.9766 23.9062 16.4844C23.9062 17.9921 22.6796 19.2188 21.1719 19.2188H16.0938V13.75Z" fill="#4B4B4B"/>
<path d="M30.1562 16.4844C30.1562 11.5304 26.1259 7.5 21.1719 7.5H10.625C10.1936 7.5 9.84375 7.84984 9.84375 8.28125V31.7188C9.84375 32.1502 10.1936 32.5 10.625 32.5H15.3125C15.7439 32.5 16.0938 32.1502 16.0938 31.7188V25.4688H21.1719C26.1259 25.4688 30.1562 21.4384 30.1562 16.4844ZM15.3125 23.9062C14.8811 23.9062 14.5312 24.2561 14.5312 24.6875V30.9375H11.4062V9.0625H21.1719C25.2643 9.0625 28.5938 12.392 28.5938 16.4844C28.5938 20.5768 25.2643 23.9062 21.1719 23.9062H15.3125Z" fill="#4B4B4B"/>
<path d="M20 40C20.4315 40 20.7812 39.6502 20.7812 39.2188C20.7812 38.7873 20.4315 38.4375 20 38.4375C19.5685 38.4375 19.2188 38.7873 19.2188 39.2188C19.2188 39.6502 19.5685 40 20 40Z" fill="#4B4B4B"/>
<path d="M36.875 0H3.125C1.40188 0 0 1.40188 0 3.125V36.875C0 38.5981 1.40188 40 3.125 40H16.4844C16.9158 40 17.2656 39.6502 17.2656 39.2188C17.2656 38.7873 16.9158 38.4375 16.4844 38.4375H3.125C2.26344 38.4375 1.5625 37.7366 1.5625 36.875V3.125C1.5625 2.26344 2.26344 1.5625 3.125 1.5625H36.875C37.7366 1.5625 38.4375 2.26344 38.4375 3.125V36.875C38.4375 37.7366 37.7366 38.4375 36.875 38.4375H23.5156C23.0842 38.4375 22.7344 38.7873 22.7344 39.2188C22.7344 39.6502 23.0842 40 23.5156 40H36.875C38.5981 40 40 38.5981 40 36.875V3.125C40 1.40188 38.5981 0 36.875 0Z" fill="#4B4B4B"/>
</g>
<defs>
<clipPath id="clip0_118_9409">
<rect width="40" height="40" fill="white"/>
</clipPath>
</defs>
</svg>
