<svg width="722" height="768" viewBox="0 0 722 768" fill="none" xmlns="http://www.w3.org/2000/svg">
<rect x="453.424" y="-14.2776" width="224" height="190" rx="43" transform="rotate(-16 453.424 -14.2776)" fill="url(#paint0_linear_2150_1633)" fill-opacity="0.5"/>
<rect x="331" y="240.99" width="121" height="103" rx="32" transform="rotate(-16 331 240.99)" fill="url(#paint1_linear_2150_1633)" fill-opacity="0.5"/>
<rect y="168.352" width="121" height="103" rx="32" transform="rotate(-16 0 168.352)" fill="url(#paint2_linear_2150_1633)" fill-opacity="0.5"/>
<rect x="482" y="398.705" width="86" height="73" rx="21" transform="rotate(-16 482 398.705)" fill="url(#paint3_linear_2150_1633)" fill-opacity="0.5"/>
<rect x="3" y="697.828" width="86" height="73" rx="21" transform="rotate(-16 3 697.828)" fill="url(#paint4_linear_2150_1633)" fill-opacity="0.5"/>
<defs>
<linearGradient id="paint0_linear_2150_1633" x1="565.424" y1="-109.278" x2="377.97" y2="111.721" gradientUnits="userSpaceOnUse">
<stop stop-color="#95D5DC"/>
<stop offset="1" stop-color="#69B5BD"/>
</linearGradient>
<linearGradient id="paint1_linear_2150_1633" x1="391.5" y1="189.49" x2="289.822" y2="308.937" gradientUnits="userSpaceOnUse">
<stop stop-color="#95D5DC"/>
<stop offset="1" stop-color="#69B5BD"/>
</linearGradient>
<linearGradient id="paint2_linear_2150_1633" x1="60.5" y1="116.852" x2="-41.1783" y2="236.299" gradientUnits="userSpaceOnUse">
<stop stop-color="#95D5DC"/>
<stop offset="1" stop-color="#69B5BD"/>
</linearGradient>
<linearGradient id="paint3_linear_2150_1633" x1="525" y1="362.205" x2="452.97" y2="447.063" gradientUnits="userSpaceOnUse">
<stop stop-color="#95D5DC"/>
<stop offset="1" stop-color="#69B5BD"/>
</linearGradient>
<linearGradient id="paint4_linear_2150_1633" x1="46" y1="661.328" x2="-26.0305" y2="746.186" gradientUnits="userSpaceOnUse">
<stop stop-color="#95D5DC"/>
<stop offset="1" stop-color="#69B5BD"/>
</linearGradient>
</defs>
</svg>
